<svg width="21" height="21" viewBox="0 0 21 21" fill="none" xmlns="http://www.w3.org/2000/svg">
<path d="M17.0625 2.625H15.0938V1.96875C15.0938 1.7947 15.0246 1.62778 14.9015 1.50471C14.7785 1.38164 14.6115 1.3125 14.4375 1.3125C14.2635 1.3125 14.0965 1.38164 13.9735 1.50471C13.8504 1.62778 13.7812 1.7947 13.7812 1.96875V2.625H7.21875V1.96875C7.21875 1.7947 7.14961 1.62778 7.02654 1.50471C6.90347 1.38164 6.73655 1.3125 6.5625 1.3125C6.38845 1.3125 6.22153 1.38164 6.09846 1.50471C5.97539 1.62778 5.90625 1.7947 5.90625 1.96875V2.625H3.9375C3.5894 2.625 3.25556 2.76328 3.00942 3.00942C2.76328 3.25556 2.625 3.5894 2.625 3.9375V17.0625C2.625 17.4106 2.76328 17.7444 3.00942 17.9906C3.25556 18.2367 3.5894 18.375 3.9375 18.375H17.0625C17.4106 18.375 17.7444 18.2367 17.9906 17.9906C18.2367 17.7444 18.375 17.4106 18.375 17.0625V3.9375C18.375 3.5894 18.2367 3.25556 17.9906 3.00942C17.7444 2.76328 17.4106 2.625 17.0625 2.625ZM5.90625 3.9375V4.59375C5.90625 4.7678 5.97539 4.93472 6.09846 5.05779C6.22153 5.18086 6.38845 5.25 6.5625 5.25C6.73655 5.25 6.90347 5.18086 7.02654 5.05779C7.14961 4.93472 7.21875 4.7678 7.21875 4.59375V3.9375H13.7812V4.59375C13.7812 4.7678 13.8504 4.93472 13.9735 5.05779C14.0965 5.18086 14.2635 5.25 14.4375 5.25C14.6115 5.25 14.7785 5.18086 14.9015 5.05779C15.0246 4.93472 15.0938 4.7678 15.0938 4.59375V3.9375H17.0625V6.5625H3.9375V3.9375H5.90625ZM17.0625 17.0625H3.9375V7.875H17.0625V17.0625ZM9.1875 9.84375V15.0938C9.1875 15.2678 9.11836 15.4347 8.99529 15.5578C8.87222 15.6809 8.7053 15.75 8.53125 15.75C8.3572 15.75 8.19028 15.6809 8.06721 15.5578C7.94414 15.4347 7.875 15.2678 7.875 15.0938V10.9052L7.51242 11.0873C7.35665 11.1652 7.17632 11.178 7.01109 11.123C6.84587 11.0679 6.70929 10.9494 6.63141 10.7937C6.55352 10.6379 6.5407 10.4576 6.59578 10.2923C6.65085 10.1271 6.7693 9.99054 6.92508 9.91266L8.23758 9.25641C8.33767 9.20632 8.4489 9.18267 8.56071 9.18769C8.67251 9.19272 8.78118 9.22625 8.87637 9.28511C8.97156 9.34397 9.05012 9.42619 9.10458 9.52397C9.15904 9.62175 9.18758 9.73183 9.1875 9.84375ZM14.0405 12.3416L12.4688 14.4375H13.7812C13.9553 14.4375 14.1222 14.5066 14.2453 14.6297C14.3684 14.7528 14.4375 14.9197 14.4375 15.0938C14.4375 15.2678 14.3684 15.4347 14.2453 15.5578C14.1222 15.6809 13.9553 15.75 13.7812 15.75H11.1562C11.0344 15.75 10.9149 15.7161 10.8112 15.652C10.7076 15.5879 10.6238 15.4962 10.5693 15.3872C10.5148 15.2782 10.4917 15.1562 10.5027 15.0348C10.5136 14.9134 10.5581 14.7975 10.6313 14.7L12.9921 11.5525C13.0458 11.481 13.0843 11.3993 13.1053 11.3123C13.1263 11.2254 13.1293 11.1352 13.1141 11.047C13.099 10.9589 13.066 10.8748 13.0171 10.7999C12.9683 10.725 12.9047 10.6609 12.8302 10.6115C12.7557 10.562 12.6719 10.5284 12.5839 10.5125C12.4959 10.4966 12.4056 10.4989 12.3185 10.5192C12.2314 10.5395 12.1494 10.5773 12.0775 10.6305C12.0056 10.6836 11.9453 10.7509 11.9003 10.8281C11.8585 10.9051 11.8016 10.973 11.7332 11.0277C11.6647 11.0824 11.586 11.1228 11.5016 11.1466C11.4173 11.1704 11.329 11.177 11.2421 11.1661C11.1551 11.1552 11.0712 11.1271 10.9953 11.0832C10.9194 11.0394 10.8531 10.9808 10.8002 10.9109C10.7474 10.841 10.709 10.7613 10.6875 10.6763C10.6659 10.5914 10.6616 10.503 10.6748 10.4163C10.6879 10.3297 10.7183 10.2466 10.7641 10.1719C10.9809 9.79674 11.3154 9.50359 11.7157 9.33786C12.116 9.17214 12.5598 9.1431 12.9783 9.25525C13.3969 9.3674 13.7667 9.61447 14.0305 9.95817C14.2943 10.3019 14.4374 10.723 14.4375 11.1562C14.4389 11.5842 14.2994 12.0008 14.0405 12.3416Z" fill="black"/>
</svg>
