<svg width="32" height="32" viewBox="0 0 32 32" fill="none" xmlns="http://www.w3.org/2000/svg">
<path d="M30.9539 5.98625C30.9396 5.74161 30.836 5.51073 30.6627 5.33744C30.4894 5.16416 30.2585 5.06054 30.0139 5.04625C23.5439 4.67125 18.3489 6.63875 16.1164 10.3237C14.6414 12.76 14.6439 15.7188 16.0964 18.5413C15.2696 19.5254 14.6654 20.6767 14.3251 21.9163L12.2914 19.875C13.2689 17.8337 13.2314 15.7063 12.1664 13.9388C10.5164 11.215 6.70762 9.755 1.97887 10.0325C1.73423 10.0468 1.50334 10.1504 1.33006 10.3237C1.15678 10.497 1.05316 10.7279 1.03887 10.9725C0.760119 15.7013 2.22137 19.51 4.94512 21.16C5.84395 21.7092 6.87681 21.9998 7.93012 22C8.95249 21.9874 9.95896 21.7452 10.8751 21.2913L14.0001 24.4163V28C14.0001 28.2652 14.1055 28.5196 14.293 28.7071C14.4805 28.8946 14.7349 29 15.0001 29C15.2653 29 15.5197 28.8946 15.7072 28.7071C15.8948 28.5196 16.0001 28.2652 16.0001 28V24.3137C15.9957 22.7229 16.537 21.1786 17.5339 19.9387C18.8201 20.6109 20.2465 20.9706 21.6976 20.9888C23.1006 20.9933 24.4775 20.61 25.6764 19.8813C29.3614 17.6513 31.3339 12.4562 30.9539 5.98625ZM5.97637 19.45C4.05887 18.2888 2.97387 15.54 3.00012 12C6.54012 11.97 9.28887 13.0588 10.4501 14.9762C11.0564 15.9762 11.1551 17.1425 10.7576 18.3438L7.70637 15.2925C7.51731 15.1129 7.26556 15.0142 7.0048 15.0176C6.74403 15.0209 6.49489 15.126 6.31049 15.3104C6.12609 15.4948 6.02102 15.7439 6.01768 16.0047C6.01434 16.2654 6.113 16.5172 6.29262 16.7062L9.34387 19.7575C8.14262 20.155 6.97762 20.0563 5.97637 19.45ZM24.6401 18.1725C22.9651 19.1863 20.9964 19.2638 18.9964 18.4225L25.7076 11.71C25.8872 11.5209 25.9859 11.2692 25.9826 11.0084C25.9792 10.7477 25.8741 10.4985 25.6897 10.3141C25.5053 10.1297 25.2562 10.0246 24.9954 10.0213C24.7347 10.018 24.4829 10.1166 24.2939 10.2963L17.5814 17C16.7364 15 16.8126 13.03 17.8314 11.3562C19.5739 8.48125 23.7064 6.87875 28.9976 7.0025C29.1176 12.2925 27.5176 16.43 24.6401 18.1725Z" fill="black"/>
</svg>
