<svg width="158" height="182" viewBox="0 0 158 182" fill="none" xmlns="http://www.w3.org/2000/svg">
<g clip-path="url(#clip0_6_29)">
<path d="M90.5681 43.8096C90.5681 45.1797 90.4651 46.2005 90.5818 47.1938C91.3848 53.7978 89.6484 59.7304 86.2854 65.4096C83.9107 69.424 82.0782 73.7536 79.9643 77.9256C79.4015 79.0354 79.3946 79.7205 80.7193 80.337C83.5675 81.6592 86.2854 83.2348 89.1337 84.557C90.6916 85.2832 91.3162 86.2286 91.2613 87.9823C91.1377 92.0858 91.2613 96.203 91.1995 100.313C91.1789 101.663 91.5015 102.567 92.8604 103.115C94.3223 103.698 95.6881 104.506 97.5481 105.445V88.4208C98.5227 88.8181 99.106 88.9893 99.6276 89.2702C109.875 94.8055 120.101 100.375 130.368 105.862C131.624 106.534 132.009 107.363 132.002 108.705C131.961 118.413 131.961 128.113 132.002 137.82C132.002 139.184 131.569 139.972 130.341 140.657C122.009 145.294 113.711 149.987 105.448 154.735C104.233 155.433 103.327 155.392 102.167 154.693C96.896 151.501 91.5907 148.357 86.2579 145.26C85.002 144.534 84.5833 143.637 84.597 142.219C84.7343 125.551 84.7961 108.884 84.9676 92.216C84.9882 90.243 84.4598 89.1127 82.5861 88.27C79.2025 86.7561 75.9904 84.879 72.6343 83.2896C71.2067 82.6114 70.9802 81.9127 71.6803 80.5289C75.4414 73.1028 79.1064 65.6356 82.8743 58.2096C83.8764 56.2366 84.4803 54.2705 84.3843 52.0029C84.2401 48.7558 84.3088 45.4949 84.3637 42.2408C84.3843 40.9872 83.9381 40.261 82.7988 39.7061C79.2093 37.9592 75.6541 36.1301 72.1127 34.2804C71.6048 34.0133 70.9185 33.4858 70.891 33.0336C70.7537 31.0743 70.8361 29.0945 70.8361 26.7037C73.5746 28.0669 75.963 29.2315 78.324 30.4304C104.233 43.5698 130.128 56.7299 156.051 69.8351C157.478 70.5544 158.117 71.3833 157.973 72.9863C157.842 74.4455 157.945 75.9184 157.945 77.9051C153.395 75.5964 149.229 73.4796 144.761 71.212C144.671 72.2876 144.555 73.0411 144.555 73.8016C144.548 97.3197 144.52 120.838 144.589 144.356C144.589 146.315 144.006 147.439 142.269 148.398C122.455 159.393 102.682 170.457 82.9155 181.541C81.8311 182.151 81.0144 182.164 79.9368 181.548C60.0127 170.279 40.0748 159.044 20.1095 147.836C18.8878 147.151 18.4897 146.329 18.5035 144.972C18.5652 138.978 18.4829 132.984 18.5584 126.99C18.579 125.572 18.0368 124.797 16.8288 124.195C11.7157 121.653 6.64368 119.043 1.53738 116.495C0.665743 116.063 0.00686592 115.645 0.0137292 114.501C0.0480457 107.534 0.0274558 100.574 0.0411824 93.6067C0.0411824 93.2847 0.164722 92.9627 0.308851 92.2571C6.3211 95.2782 12.1755 98.2308 18.3387 101.327C18.4211 100.245 18.5172 99.5393 18.5172 98.8337C18.5378 96.0934 18.4829 93.3532 18.5446 90.6129C18.5721 89.4278 18.126 88.7633 17.0416 88.2289C11.7774 85.612 6.54073 82.9403 1.33835 80.2069C0.754965 79.8986 0.0960888 79.0628 0.0823622 78.46C2.62453e-06 71.3833 0.0274558 64.3066 0.0411824 57.2231C0.0411824 56.9559 0.157858 56.6956 0.288261 56.127C6.29365 59.1481 12.1618 62.1007 18.3113 65.1972C18.4074 64.3614 18.5103 63.8271 18.5172 63.2996C18.5309 60.3881 18.4623 57.4766 18.5515 54.5651C18.5927 53.2772 18.0642 52.6058 16.9661 52.0577C11.8529 49.5162 6.79467 46.8855 1.66778 44.3714C0.418664 43.7754 -0.013724 42.9875 2.62566e-06 41.6106C0.0617723 35.1642 0.0274558 28.7109 0.0343191 22.2576C0.0343191 21.6479 0.0960888 21.0314 0.150995 20.038C2.1688 21.0177 3.9464 21.8466 5.68968 22.7303C11.4411 25.6418 17.1651 28.6218 22.9509 31.4717C24.3373 32.1567 24.7696 33.0062 24.7696 34.5202C24.7285 69.8556 24.7559 105.191 24.6873 140.526C24.6873 142.486 25.3599 143.459 26.9796 144.376C44.5703 154.324 62.1266 164.332 79.6623 174.368C80.9183 175.088 81.8654 175.088 83.1077 174.382C100.739 164.394 118.385 154.433 136.072 144.541C137.746 143.602 138.337 142.541 138.33 140.629C138.261 117.166 138.268 93.7094 138.323 70.2461C138.323 68.5266 137.788 67.5812 136.236 66.8002C121.604 59.4427 107.006 52.0029 92.3937 44.5974C91.9476 44.3714 91.474 44.2001 90.5544 43.8096H90.5681ZM91.3299 109.315C91.3299 111.754 91.323 113.699 91.3436 115.645C91.3436 115.837 91.5152 116.118 91.6868 116.207C93.5193 117.152 95.3655 118.07 97.5755 119.18C97.5755 116.864 97.5892 115.008 97.5549 113.158C97.5549 112.912 97.3765 112.562 97.1706 112.453C95.3655 111.452 93.5399 110.493 91.3231 109.315H91.3299Z" fill="white"/>
<path d="M144.39 56.9354C141.617 55.5447 139.229 54.3664 136.854 53.1607C119.909 44.5632 102.97 35.9588 86.0177 27.3887C84.8784 26.8133 84.3088 26.1556 84.3225 24.7855C84.3843 17.1402 84.3499 9.49493 84.3568 1.84966C84.3568 -0.239778 84.597 -0.383641 86.505 0.582294C105.235 10.0704 123.951 19.5722 142.695 29.0329C144.033 29.7111 144.61 30.5331 144.596 32.0814C144.527 39.6102 144.569 47.1458 144.562 54.6747C144.562 55.2775 144.479 55.8872 144.404 56.9422L144.39 56.9354Z" fill="white"/>
<path d="M55.5241 92.3119C55.5721 93.2367 55.6339 93.7916 55.6339 94.3465C55.6339 100.855 55.5996 107.363 55.6682 113.871C55.6819 115.289 55.1603 115.994 53.9249 116.611C46.8763 120.132 39.8758 123.736 32.8546 127.305C32.3604 127.558 31.832 127.736 31.0907 128.045C31.029 127.318 30.9397 126.784 30.9397 126.243C30.9329 119.618 30.9535 113.001 30.9123 106.376C30.9054 105.164 31.2211 104.431 32.4085 103.841C39.464 100.341 46.4645 96.7374 53.4925 93.1751C54.0347 92.901 54.6113 92.6955 55.5172 92.305L55.5241 92.3119Z" fill="white"/>
<path d="M55.531 20.1476C55.579 21.0656 55.6339 21.6274 55.6339 22.1823C55.6339 28.6835 55.5996 35.1779 55.6682 41.6722C55.6819 42.9944 55.2496 43.7548 54.0759 44.344C46.9381 47.9131 39.8277 51.5371 32.7105 55.1268C32.2712 55.346 31.7977 55.483 31.0976 55.7502C31.0358 54.9829 30.9466 54.4417 30.9466 53.9006C30.9397 47.2897 30.9672 40.6789 30.9192 34.0681C30.9123 32.8898 31.2692 32.1841 32.333 31.6566C39.4708 28.0806 46.5812 24.4635 53.7053 20.8669C54.1926 20.6203 54.7279 20.4628 55.5378 20.1408L55.531 20.1476Z" fill="white"/>
<path d="M31.0358 91.846C30.9947 91.0514 30.9398 90.4965 30.9398 89.9484C30.9398 83.3855 30.9603 76.8227 30.9123 70.2598C30.9054 69.013 31.2966 68.3211 32.4497 67.7456C39.4434 64.2587 46.3959 60.6826 53.369 57.1409C53.9661 56.8395 54.5838 56.5791 55.428 56.1886C55.5104 56.8874 55.6202 57.3601 55.6202 57.8396C55.6339 64.5738 55.6133 71.3079 55.6476 78.0421C55.6476 79.145 55.2976 79.8095 54.275 80.3233C46.8832 84.0363 39.512 87.8042 32.134 91.5446C31.8937 91.6679 31.6124 91.6953 31.029 91.846H31.0358Z" fill="white"/>
<path d="M100.939 65.1081C98.4677 65.0876 96.5254 63.1215 96.5254 60.6347C96.5254 58.0794 98.5432 56.127 101.117 56.1818C103.553 56.2298 105.523 58.2918 105.461 60.7375C105.4 63.2037 103.409 65.1287 100.939 65.1081Z" fill="white"/>
</g>
<defs>
<clipPath id="clip0_6_29">
<rect width="158" height="182" fill="white"/>
</clipPath>
</defs>
</svg>
