<svg width="32" height="32" viewBox="0 0 32 32" fill="none" xmlns="http://www.w3.org/2000/svg">
<path d="M17.1038 27.5537C16.9569 27.7745 16.7283 27.9279 16.4683 27.9802C16.2084 28.0324 15.9383 27.9793 15.7175 27.8325C11.9502 25.3263 7.52475 23.9927 3 24C2.73478 24 2.48043 23.8946 2.29289 23.7071C2.10536 23.5196 2 23.2652 2 23C2 22.7348 2.10536 22.4804 2.29289 22.2929C2.48043 22.1054 2.73478 22 3 22C7.91891 21.9925 12.7297 23.4427 16.825 26.1675C17.0458 26.3144 17.1991 26.5429 17.2514 26.8029C17.3037 27.0629 17.2506 27.3329 17.1038 27.5537ZM3 18C2.73478 18 2.48043 18.1054 2.29289 18.2929C2.10536 18.4804 2 18.7348 2 19C2 19.2652 2.10536 19.5196 2.29289 19.7071C2.48043 19.8946 2.73478 20 3 20C10.0685 19.9838 16.8583 22.7555 21.8962 27.7138C21.9892 27.8093 22.1003 27.8854 22.2231 27.9374C22.3458 27.9894 22.4777 28.0163 22.611 28.0166C22.7444 28.0169 22.8764 27.9905 22.9994 27.939C23.1223 27.8875 23.2338 27.812 23.3271 27.7168C23.4205 27.6216 23.4938 27.5087 23.5429 27.3848C23.592 27.2608 23.6158 27.1283 23.6129 26.995C23.6101 26.8617 23.5806 26.7304 23.5262 26.6087C23.4718 26.4869 23.3936 26.3773 23.2962 26.2862C17.8855 20.9599 10.5925 17.9824 3 18ZM29 20C26.956 19.9987 24.9184 20.2289 22.9263 20.6863C23.6129 21.2071 24.2796 21.7554 24.9263 22.3312C26.273 22.1107 27.6354 21.9999 29 22C29.2652 22 29.5196 22.1054 29.7071 22.2929C29.8946 22.4804 30 22.7348 30 23C30 23.2652 29.8946 23.5196 29.7071 23.7071C29.5196 23.8946 29.2652 24 29 24C28.25 24 27.5087 24.0362 26.7687 24.1075C27.4621 24.83 28.1262 25.5858 28.7612 26.375C28.8482 26.4769 28.9139 26.5952 28.9542 26.7229C28.9946 26.8506 29.0089 26.9851 28.9963 27.1185C28.9837 27.2518 28.9445 27.3813 28.8809 27.4992C28.8173 27.6171 28.7306 27.721 28.6261 27.8047C28.5215 27.8885 28.4013 27.9504 28.2723 27.9868C28.1434 28.0232 28.0085 28.0333 27.8756 28.0165C27.7427 27.9997 27.6145 27.9564 27.4987 27.8892C27.3829 27.8219 27.2817 27.7321 27.2013 27.625C24.3028 23.9903 20.6209 21.0571 16.4304 19.0442C12.2399 17.0313 7.64888 15.9907 3 16C2.73478 16 2.48043 15.8946 2.29289 15.7071C2.10536 15.5196 2 15.2652 2 15C2 14.7348 2.10536 14.4804 2.29289 14.2929C2.48043 14.1054 2.73478 14 3 14C5.0124 14.0004 7.02062 14.1832 9 14.5463V10C9 9.84475 9.03615 9.69164 9.10557 9.55279C9.175 9.41393 9.2758 9.29315 9.4 9.2L17.4 3.2C17.5731 3.07018 17.7836 3 18 3C18.2164 3 18.4269 3.07018 18.6 3.2L26.6 9.2C26.7242 9.29315 26.825 9.41393 26.8944 9.55279C26.9639 9.69164 27 9.84475 27 10V14.0612C27.6637 14.0225 28.33 14 29 14C29.2652 14 29.5196 14.1054 29.7071 14.2929C29.8946 14.4804 30 14.7348 30 15C30 15.2652 29.8946 15.5196 29.7071 15.7071C29.5196 15.8946 29.2652 16 29 16C25.4089 15.9931 21.8444 16.6146 18.4675 17.8363C19.2542 18.2529 20.0233 18.7021 20.775 19.1838C23.4457 18.3967 26.2157 17.998 29 18C29.2652 18 29.5196 18.1054 29.7071 18.2929C29.8946 18.4804 30 18.7348 30 19C30 19.2652 29.8946 19.5196 29.7071 19.7071C29.5196 19.8946 29.2652 20 29 20ZM15 11H21C21.2652 11 21.5196 11.1054 21.7071 11.2929C21.8946 11.4804 22 11.7348 22 12V14.7425C22.99 14.5292 23.99 14.3625 25 14.2425V10.5L18 5.25L11 10.5V14.9762C12.0158 15.2262 13.0158 15.5254 14 15.8737V12C14 11.7348 14.1054 11.4804 14.2929 11.2929C14.4804 11.1054 14.7348 11 15 11ZM16.0088 16.6588C17.3073 16.1012 18.6405 15.6281 20 15.2425V13H16V16.655L16.0088 16.6588Z" fill="black"/>
</svg>
