<svg width="14" height="15" viewBox="0 0 14 15" fill="none" xmlns="http://www.w3.org/2000/svg">
<g clip-path="url(#clip0_41_190)">
<path d="M4.25955 14.5C3.93818 14.5 3.65697 14.4027 3.41594 14.2081C3.17491 14.0135 3.01423 13.7617 2.93388 13.4526L2.15914 10.3791H11.1117L10.337 13.4526C10.2566 13.7617 10.0959 14.0135 9.85489 14.2081C9.61386 14.4027 9.33266 14.5 9.01128 14.5H4.25955ZM3.01997 0.797916C4.04147 0.923833 4.89954 1.37301 5.59417 2.14546C6.28833 2.91836 6.63542 3.83138 6.63542 4.8845C6.63542 3.83138 6.9825 2.91836 7.67667 2.14546C8.37129 1.37301 9.22936 0.923833 10.2509 0.797916C10.3886 0.775022 10.5091 0.815086 10.6124 0.918109C10.7157 1.02113 10.7559 1.14133 10.7329 1.27869C10.6182 2.18301 10.2451 2.95843 9.61386 3.60496C8.98259 4.25194 8.21933 4.65556 7.32407 4.81582V6.25815H12.1447C12.3398 6.25815 12.5032 6.32385 12.635 6.45526C12.7672 6.58713 12.8333 6.75037 12.8333 6.94497V8.31861C12.8333 8.69636 12.6986 9.01963 12.4291 9.2884C12.1591 9.55764 11.8348 9.69225 11.456 9.69225H1.81481C1.43605 9.69225 1.1117 9.55764 0.841742 9.2884C0.572247 9.01963 0.4375 8.69636 0.4375 8.31861V6.94497C0.4375 6.75037 0.503611 6.58713 0.635833 6.45526C0.767597 6.32385 0.931038 6.25815 1.12616 6.25815H5.94676V4.81582C5.0515 4.65556 4.28824 4.25194 3.65697 3.60496C3.0257 2.95843 2.65268 2.18301 2.53791 1.27869C2.51495 1.14133 2.55512 1.02113 2.65842 0.918109C2.76172 0.815086 2.88223 0.775022 3.01997 0.797916Z" fill="#29B674"/>
</g>
<defs>
<clipPath id="clip0_41_190">
<rect width="14" height="14" fill="white" transform="translate(0 0.5)"/>
</clipPath>
</defs>
</svg>
