<svg width="24" height="24" viewBox="0 0 24 24" fill="none" xmlns="http://www.w3.org/2000/svg">
<path d="M21 12C21 13.7579 20.4853 15.4773 19.5193 16.946C18.5533 18.4146 17.1783 19.5682 15.5642 20.2644C13.95 20.9606 12.1673 21.1688 10.4362 20.8633C8.70505 20.5579 7.10126 19.7522 5.82281 18.5456C5.75116 18.4779 5.69355 18.3968 5.65326 18.3068C5.61298 18.2168 5.59081 18.1198 5.58802 18.0212C5.58524 17.9227 5.60189 17.8245 5.63702 17.7324C5.67216 17.6403 5.7251 17.556 5.79281 17.4844C5.92957 17.3397 6.1182 17.2552 6.31722 17.2496C6.41577 17.2468 6.5139 17.2635 6.60601 17.2986C6.69812 17.3337 6.78241 17.3867 6.85406 17.4544C7.92632 18.466 9.2729 19.1391 10.7256 19.3898C12.1782 19.6404 13.6725 19.4574 15.0218 18.8636C16.371 18.2699 17.5153 17.2916 18.3118 16.0512C19.1083 14.8108 19.5215 13.3631 19.5 11.8892C19.4784 10.4152 19.0229 8.9803 18.1905 7.76371C17.358 6.54713 16.1855 5.60283 14.8195 5.04881C13.4535 4.49479 11.9544 4.35561 10.5097 4.64867C9.06504 4.94173 7.73875 5.65403 6.69656 6.69657C6.36563 7.03125 6.05438 7.36032 5.75156 7.6875L7.28063 9.21938C7.38563 9.32427 7.45716 9.45796 7.48615 9.60352C7.51514 9.74909 7.50028 9.89998 7.44347 10.0371C7.38665 10.1742 7.29043 10.2914 7.16699 10.3738C7.04354 10.4562 6.89842 10.5001 6.75 10.5H3C2.80109 10.5 2.61032 10.421 2.46967 10.2803C2.32902 10.1397 2.25 9.94892 2.25 9.75V6C2.24988 5.85158 2.29381 5.70646 2.37621 5.58302C2.45861 5.45957 2.57579 5.36335 2.71291 5.30654C2.85002 5.24972 3.00092 5.23487 3.14648 5.26386C3.29204 5.29284 3.42573 5.36437 3.53063 5.46938L4.6875 6.62813C4.98938 6.30094 5.30063 5.97188 5.63063 5.63907C6.88883 4.37872 8.49267 3.51998 10.2391 3.17155C11.9856 2.82311 13.7962 3.00065 15.4417 3.68169C17.0872 4.36272 18.4937 5.51664 19.4832 6.99738C20.4726 8.47812 21.0005 10.2191 21 12ZM12 6.75C11.8011 6.75 11.6103 6.82902 11.4697 6.96967C11.329 7.11033 11.25 7.30109 11.25 7.5V12C11.25 12.1295 11.2834 12.2568 11.3472 12.3695C11.4109 12.4822 11.5028 12.5764 11.6137 12.6431L15.3638 14.8931C15.4482 14.9439 15.5418 14.9774 15.6393 14.992C15.7367 15.0065 15.8361 15.0017 15.9316 14.9779C16.0272 14.954 16.1172 14.9116 16.1964 14.853C16.2755 14.7943 16.3424 14.7207 16.3931 14.6363C16.4438 14.5518 16.4774 14.4582 16.492 14.3607C16.5065 14.2633 16.5017 14.164 16.4779 14.0684C16.454 13.9728 16.4116 13.8828 16.353 13.8036C16.2943 13.7245 16.2207 13.6576 16.1362 13.6069L12.75 11.5753V7.5C12.75 7.30109 12.671 7.11033 12.5303 6.96967C12.3897 6.82902 12.1989 6.75 12 6.75Z" fill="#29B674"/>
</svg>
