<svg width="40" height="40" viewBox="0 0 40 40" fill="none" xmlns="http://www.w3.org/2000/svg">
<circle cx="20" cy="20" r="20" fill="#25A047"/>
<path d="M19.6553 28.4072C18.5042 28.4072 17.4971 28.172 16.6338 27.7017C15.7705 27.2368 15.0981 26.5838 14.6167 25.7427C14.1408 24.896 13.9028 23.911 13.9028 22.7876C13.9028 22.2342 13.9637 21.6891 14.0854 21.1523C14.2072 20.6156 14.3566 20.1092 14.5337 19.6333C14.7108 19.1574 14.8796 18.7368 15.04 18.3716C15.4827 17.37 16.0251 16.3407 16.667 15.2837C17.3089 14.2267 17.9315 13.2306 18.5347 12.2954C18.6841 12.0741 18.8473 11.9025 19.0244 11.7808C19.2015 11.659 19.4118 11.5981 19.6553 11.5981C19.8988 11.5981 20.109 11.659 20.2861 11.7808C20.4688 11.9025 20.632 12.0741 20.7759 12.2954C21.3846 13.2306 22.0072 14.2267 22.6436 15.2837C23.2855 16.3407 23.8278 17.37 24.2705 18.3716C24.431 18.7368 24.5998 19.1574 24.7769 19.6333C24.9539 20.1092 25.1034 20.6156 25.2251 21.1523C25.3468 21.6891 25.4077 22.2342 25.4077 22.7876C25.4077 23.911 25.167 24.896 24.6855 25.7427C24.2096 26.5838 23.54 27.2368 22.6768 27.7017C21.8135 28.172 20.8063 28.4072 19.6553 28.4072ZM19.6553 27.0459C20.5352 27.0459 21.3044 26.8688 21.9629 26.5146C22.6214 26.1605 23.1333 25.6652 23.4985 25.0288C23.8693 24.3869 24.0547 23.6398 24.0547 22.7876C24.0547 22.1069 23.944 21.4456 23.7227 20.8037C23.5068 20.1562 23.2827 19.5614 23.0503 19.019C22.5965 17.9289 22.0763 16.9217 21.4897 15.9976C20.9032 15.0734 20.3221 14.1742 19.7466 13.2998C19.7244 13.2555 19.6968 13.2334 19.6636 13.2334C19.6304 13.2334 19.5999 13.2555 19.5723 13.2998C18.9912 14.1742 18.4074 15.0762 17.8208 16.0059C17.2397 16.93 16.7168 17.9372 16.252 19.0273C16.0195 19.5641 15.7954 20.1562 15.5796 20.8037C15.3693 21.4456 15.2642 22.1069 15.2642 22.7876C15.2642 23.6398 15.4468 24.3869 15.812 25.0288C16.1772 25.6652 16.6891 26.1605 17.3477 26.5146C18.0062 26.8688 18.7754 27.0459 19.6553 27.0459ZM25.5654 14.6113C25.0895 14.6113 24.6606 14.5007 24.2788 14.2793C23.897 14.0524 23.5926 13.748 23.3657 13.3662C23.1388 12.9788 23.0254 12.55 23.0254 12.0796C23.0254 11.6037 23.1388 11.1748 23.3657 10.793C23.5926 10.4056 23.897 10.1012 24.2788 9.87988C24.6606 9.65299 25.0895 9.53955 25.5654 9.53955C26.0413 9.53955 26.4702 9.65299 26.8521 9.87988C27.2339 10.1012 27.5355 10.4056 27.7568 10.793C27.9837 11.1748 28.0972 11.6037 28.0972 12.0796C28.0972 12.55 27.9837 12.9788 27.7568 13.3662C27.5355 13.748 27.2339 14.0524 26.8521 14.2793C26.4702 14.5007 26.0413 14.6113 25.5654 14.6113ZM25.5654 13.4409C25.9473 13.4409 26.2682 13.3109 26.5283 13.0508C26.7939 12.7852 26.9268 12.4614 26.9268 12.0796C26.9268 11.6922 26.7939 11.3685 26.5283 11.1084C26.2682 10.8428 25.9473 10.71 25.5654 10.71C25.1836 10.71 24.8599 10.8428 24.5942 11.1084C24.3286 11.3685 24.1958 11.6922 24.1958 12.0796C24.1958 12.4614 24.3286 12.7852 24.5942 13.0508C24.8599 13.3109 25.1836 13.4409 25.5654 13.4409Z" fill="white"/>
</svg>
