<svg width="30" height="30" viewBox="0 0 30 30" fill="none" xmlns="http://www.w3.org/2000/svg">
<path d="M15 30C12.951 30 11.0196 29.6078 9.20588 28.8235C7.40196 28.0392 5.80882 26.9559 4.42647 25.5735C3.04412 24.1912 1.96078 22.598 1.17647 20.7941C0.392157 18.9804 0 17.049 0 15C0 12.951 0.392157 11.0245 1.17647 9.22059C1.96078 7.40686 3.03922 5.80882 4.41176 4.42647C5.79412 3.04412 7.38725 1.96078 9.19118 1.17647C11.0049 0.392157 12.9363 0 14.9853 0C17.0343 0 18.9657 0.392157 20.7794 1.17647C22.5931 1.96078 24.1912 3.04412 25.5735 4.42647C26.9559 5.80882 28.0392 7.40686 28.8235 9.22059C29.6078 11.0245 30 12.951 30 15C30 17.049 29.6078 18.9804 28.8235 20.7941C28.0392 22.598 26.9559 24.1912 25.5735 25.5735C24.1912 26.9559 22.5931 28.0392 20.7794 28.8235C18.9755 29.6078 17.049 30 15 30ZM15 27.5C16.7353 27.5 18.3578 27.1765 19.8676 26.5294C21.3775 25.8824 22.7059 24.9902 23.8529 23.8529C25 22.7059 25.8922 21.3775 26.5294 19.8676C27.1765 18.3578 27.5 16.7353 27.5 15C27.5 13.2647 27.1765 11.6422 26.5294 10.1324C25.8824 8.62255 24.9853 7.29412 23.8382 6.14706C22.701 5 21.3725 4.10784 19.8529 3.47059C18.3431 2.82353 16.7206 2.5 14.9853 2.5C13.25 2.5 11.6275 2.82353 10.1176 3.47059C8.60784 4.10784 7.28431 5 6.14706 6.14706C5.0098 7.29412 4.11765 8.62255 3.47059 10.1324C2.83333 11.6422 2.51471 13.2647 2.51471 15C2.51471 16.7353 2.83333 18.3578 3.47059 19.8676C4.11765 21.3775 5.0098 22.7059 6.14706 23.8529C7.29412 24.9902 8.62255 25.8824 10.1324 26.5294C11.6422 27.1765 13.2647 27.5 15 27.5ZM7.58824 11.1471C7.26471 11.1471 6.9951 11.0539 6.77941 10.8676C6.57353 10.6814 6.47059 10.4314 6.47059 10.1176C6.47059 9.80392 6.57353 9.55392 6.77941 9.36765C6.9951 9.17157 7.26471 9.07353 7.58824 9.07353H22.4559C22.7794 9.07353 23.0441 9.17157 23.25 9.36765C23.4559 9.55392 23.5588 9.80392 23.5588 10.1176C23.5588 10.4314 23.4559 10.6814 23.25 10.8676C23.0441 11.0539 22.7794 11.1471 22.4559 11.1471H7.58824ZM7.58824 16.0147C7.26471 16.0147 6.9951 15.9216 6.77941 15.7353C6.57353 15.549 6.47059 15.299 6.47059 14.9853C6.47059 14.6716 6.57353 14.4216 6.77941 14.2353C6.9951 14.0392 7.26471 13.9412 7.58824 13.9412H22.4559C22.7794 13.9412 23.0441 14.0392 23.25 14.2353C23.4559 14.4216 23.5588 14.6716 23.5588 14.9853C23.5588 15.299 23.4559 15.549 23.25 15.7353C23.0441 15.9216 22.7794 16.0147 22.4559 16.0147H7.58824ZM7.58824 20.8971C7.26471 20.8971 6.9951 20.8039 6.77941 20.6176C6.57353 20.4216 6.47059 20.1716 6.47059 19.8676C6.47059 19.5539 6.57353 19.3039 6.77941 19.1176C6.9951 18.9216 7.26471 18.8235 7.58824 18.8235H22.4559C22.7794 18.8235 23.0441 18.9216 23.25 19.1176C23.4559 19.3039 23.5588 19.5539 23.5588 19.8676C23.5588 20.1716 23.4559 20.4216 23.25 20.6176C23.0441 20.8039 22.7794 20.8971 22.4559 20.8971H7.58824Z" fill="black"/>
</svg>
