<svg width="41" height="40" viewBox="0 0 41 40" fill="none" xmlns="http://www.w3.org/2000/svg">
<circle cx="20.5" cy="20" r="20" fill="#25A047"/>
<path d="M12.0581 20.0317C12.0581 18.9748 12.2407 18.0036 12.606 17.1182C12.9712 16.2327 13.4305 15.4359 13.9839 14.7275C14.1388 14.5283 14.2495 14.3678 14.3159 14.2461C14.3879 14.1243 14.4321 14.0164 14.4487 13.9224C14.4653 13.8228 14.4736 13.7093 14.4736 13.582V12.395C14.4736 12.2235 14.5373 12.0741 14.6646 11.9468C14.7974 11.814 14.9523 11.7476 15.1294 11.7476C15.3009 11.7476 15.4504 11.814 15.5776 11.9468C15.7049 12.0741 15.7686 12.2235 15.7686 12.395V13.6733C15.7686 13.9058 15.7575 14.0994 15.7354 14.2544C15.7188 14.4038 15.6828 14.5366 15.6274 14.6528C15.5776 14.769 15.5085 14.888 15.4199 15.0098C15.3314 15.1315 15.2179 15.2782 15.0796 15.4497C14.6147 16.0529 14.2163 16.7336 13.8843 17.4917C13.5578 18.2443 13.3945 19.091 13.3945 20.0317C13.3945 20.7954 13.5163 21.4871 13.7598 22.1069C14.0033 22.7267 14.3408 23.2746 14.7725 23.7505C15.2041 24.2209 15.7049 24.6221 16.2749 24.9541H24.7168C25.2923 24.6221 25.7959 24.2209 26.2275 23.7505C26.6592 23.2746 26.9967 22.7267 27.2402 22.1069C27.4837 21.4871 27.6055 20.7954 27.6055 20.0317C27.6055 19.091 27.4395 18.2443 27.1074 17.4917C26.7809 16.7336 26.3825 16.0529 25.9121 15.4497C25.7793 15.2782 25.6686 15.1315 25.5801 15.0098C25.4915 14.888 25.4196 14.769 25.3643 14.6528C25.3145 14.5366 25.2785 14.4038 25.2563 14.2544C25.2397 14.0994 25.2314 13.9058 25.2314 13.6733V12.395C25.2314 12.2235 25.2951 12.0741 25.4224 11.9468C25.5496 11.814 25.6991 11.7476 25.8706 11.7476C26.0477 11.7476 26.1999 11.814 26.3271 11.9468C26.46 12.0741 26.5264 12.2235 26.5264 12.395V13.582C26.5264 13.7093 26.5347 13.8228 26.5513 13.9224C26.5679 14.0164 26.6094 14.1243 26.6758 14.2461C26.7477 14.3678 26.8584 14.5283 27.0078 14.7275C27.5667 15.4359 28.0288 16.2327 28.394 17.1182C28.7593 18.0036 28.9419 18.9748 28.9419 20.0317C28.9419 20.9559 28.7952 21.7887 28.502 22.5303C28.2142 23.2718 27.8905 23.9331 27.5308 24.5142C27.2983 24.9015 27.1185 25.2585 26.9912 25.585C26.8639 25.9059 26.8003 26.1771 26.8003 26.3984V27.6104C26.8003 27.7819 26.7339 27.9313 26.6011 28.0586C26.4738 28.1859 26.3244 28.2495 26.1528 28.2495C25.9757 28.2495 25.8236 28.1859 25.6963 28.0586C25.569 27.9313 25.5054 27.7819 25.5054 27.6104V27.1455H24.4678V27.6104C24.4678 27.7819 24.4041 27.9313 24.2769 28.0586C24.1496 28.1859 23.9974 28.2495 23.8203 28.2495C23.6488 28.2495 23.4993 28.1859 23.3721 28.0586C23.2448 27.9313 23.1812 27.7819 23.1812 27.6104V27.1455H22.2432V27.6104C22.2432 27.7819 22.1768 27.9313 22.0439 28.0586C21.9167 28.1859 21.7645 28.2495 21.5874 28.2495C21.4214 28.2495 21.272 28.1859 21.1392 28.0586C21.0119 27.9313 20.9482 27.7819 20.9482 27.6104V27.1455H20.0435V27.6104C20.0435 27.7819 19.9798 27.9313 19.8525 28.0586C19.7253 28.1859 19.5758 28.2495 19.4043 28.2495C19.2327 28.2495 19.0806 28.1859 18.9478 28.0586C18.8149 27.9313 18.7485 27.7819 18.7485 27.6104V27.1455H17.8105V27.6104C17.8105 27.7819 17.7469 27.9313 17.6196 28.0586C17.4924 28.1859 17.3429 28.2495 17.1714 28.2495C16.9943 28.2495 16.8421 28.1859 16.7148 28.0586C16.5876 27.9313 16.5239 27.7819 16.5239 27.6104V27.1455H15.4863V27.6104C15.4863 27.7819 15.4227 27.9313 15.2954 28.0586C15.1681 28.1859 15.016 28.2495 14.8389 28.2495C14.6673 28.2495 14.5179 28.1859 14.3906 28.0586C14.2633 27.9313 14.1997 27.7819 14.1997 27.6104V26.3901C14.1997 26.1466 14.1416 25.8755 14.0254 25.5767C13.9147 25.2723 13.7542 24.9569 13.5439 24.6304C13.1621 24.0382 12.819 23.3631 12.5146 22.605C12.2103 21.8413 12.0581 20.9836 12.0581 20.0317Z" fill="white"/>
</svg>
