<svg width="13" height="15" viewBox="0 0 13 15" fill="none" xmlns="http://www.w3.org/2000/svg">
<path d="M3.97696 14.5C3.65558 14.5 3.37438 14.4027 3.13335 14.2081C2.89232 14.0135 2.73163 13.7617 2.65129 13.4526L1.87655 10.3791H10.8291L10.0544 13.4526C9.97401 13.7617 9.81333 14.0135 9.5723 14.2081C9.33127 14.4027 9.05007 14.5 8.72869 14.5H3.97696ZM2.73737 0.797911C3.75888 0.923828 4.61695 1.37301 5.31157 2.14545C6.00574 2.91836 6.35282 3.83137 6.35282 4.8845C6.35282 3.83137 6.69991 2.91836 7.39407 2.14545C8.0887 1.37301 8.94677 0.923828 9.96828 0.797911C10.106 0.775017 10.2265 0.815081 10.3298 0.918105C10.4331 1.02113 10.4733 1.14132 10.4503 1.27869C10.3356 2.183 9.96254 2.95842 9.33127 3.60495C8.7 4.25194 7.93674 4.65556 7.04148 4.81582V6.25814H11.8621C12.0572 6.25814 12.2206 6.32385 12.3524 6.45526C12.4846 6.58713 12.5507 6.75036 12.5507 6.94496V8.31861C12.5507 8.69636 12.416 9.01962 12.1465 9.2884C11.8765 9.55763 11.5522 9.69225 11.1734 9.69225H1.53222C1.15346 9.69225 0.829103 9.55763 0.559149 9.2884C0.289654 9.01962 0.154907 8.69636 0.154907 8.31861V6.94496C0.154907 6.75036 0.221018 6.58713 0.353241 6.45526C0.485004 6.32385 0.648445 6.25814 0.843565 6.25814H5.66417V4.81582C4.76891 4.65556 4.00565 4.25194 3.37438 3.60495C2.74311 2.95842 2.37009 2.183 2.25531 1.27869C2.23236 1.14132 2.27253 1.02113 2.37583 0.918105C2.47913 0.815081 2.59964 0.775017 2.73737 0.797911Z" fill="#29B674"/>
</svg>
