<svg width="21" height="21" viewBox="0 0 21 21" fill="none" xmlns="http://www.w3.org/2000/svg">
<path d="M20.3133 3.92848C20.3039 3.76793 20.2359 3.61642 20.1222 3.5027C20.0085 3.38898 19.857 3.32098 19.6964 3.31161C15.4505 3.06551 12.0413 4.35668 10.5762 6.77496C9.60821 8.37375 9.60985 10.3154 10.5631 12.1677C10.0205 12.8136 9.62398 13.5691 9.40067 14.3825L8.06602 13.043C8.7075 11.7034 8.68289 10.3072 7.98399 9.14731C6.90118 7.35985 4.40168 6.40172 1.29844 6.58383C1.13789 6.59321 0.986379 6.66121 0.872662 6.77493C0.758944 6.88864 0.690942 7.04016 0.681567 7.20071C0.498637 10.3039 1.45758 12.8034 3.24504 13.8863C3.8349 14.2466 4.51271 14.4374 5.20395 14.4375C5.87488 14.4292 6.53538 14.2703 7.13661 13.9724L9.18739 16.0232V18.375C9.18739 18.5491 9.25653 18.716 9.3796 18.839C9.50267 18.9621 9.66959 19.0313 9.84364 19.0313C10.0177 19.0313 10.1846 18.9621 10.3077 18.839C10.4307 18.716 10.4999 18.5491 10.4999 18.375V15.9559C10.497 14.9119 10.8522 13.8985 11.5064 13.0848C12.3505 13.5259 13.2866 13.762 14.2389 13.7739C15.1596 13.7768 16.0632 13.5253 16.8499 13.0471C19.2682 11.5836 20.5627 8.17442 20.3133 3.92848ZM3.9218 12.7641C2.66344 12.002 1.95141 10.1981 1.96864 7.875C4.29176 7.85532 6.09563 8.56981 6.8577 9.82817C7.25555 10.4844 7.32036 11.2498 7.0595 12.0381L5.05711 10.0357C4.93304 9.91783 4.76783 9.85309 4.59671 9.85528C4.42558 9.85747 4.26208 9.92642 4.14107 10.0474C4.02006 10.1684 3.9511 10.3319 3.94891 10.5031C3.94672 10.6742 4.01146 10.8394 4.12934 10.9635L6.13172 12.9659C5.3434 13.2267 4.57887 13.1619 3.9218 12.7641ZM16.1699 11.9257C15.0707 12.591 13.7787 12.6418 12.4662 12.0898L16.8704 7.68469C16.9883 7.56062 17.0531 7.39541 17.0509 7.22428C17.0487 7.05316 16.9797 6.88966 16.8587 6.76865C16.7377 6.64763 16.5742 6.57868 16.4031 6.57649C16.2319 6.5743 16.0667 6.63904 15.9427 6.75692L11.5376 11.1563C10.9831 9.84375 11.0331 8.55094 11.7016 7.45254C12.8452 5.56582 15.5571 4.51418 19.0295 4.5954C19.1082 8.06696 18.0582 10.7822 16.1699 11.9257Z" fill="black"/>
</svg>
