<svg width="56" height="56" viewBox="0 0 56 56" fill="none" xmlns="http://www.w3.org/2000/svg">
<path d="M1.12012 3.67999C1.12012 3.00104 1.38983 2.34989 1.86992 1.8698C2.35002 1.38971 3.00116 1.12 3.68012 1.12V3.67999H1.12012Z" fill="#29B674"/>
<path d="M3.68012 1.12H6.24012V3.67999H3.68012V1.12Z" fill="#29B674"/>
<path d="M6.24012 1.12H8.80012V3.67999H6.24012V1.12Z" fill="#29B674"/>
<path d="M8.80012 1.12H11.3601V3.67999H8.80012V1.12Z" fill="#29B674"/>
<path d="M11.3601 1.12H13.9201V3.67999H11.3601V1.12Z" fill="#29B674"/>
<path d="M13.9201 1.12H16.4801V3.67999H13.9201V1.12Z" fill="#29B674"/>
<path d="M16.4801 1.12C17.1591 1.12 17.8102 1.38971 18.2903 1.8698C18.7704 2.34989 19.0401 3.00104 19.0401 3.67999H16.4801V1.12Z" fill="#29B674"/>
<path d="M36.9601 3.67999C36.9601 3.00104 37.2298 2.34989 37.7099 1.8698C38.19 1.38971 38.8412 1.12 39.5201 1.12V3.67999H36.9601Z" fill="#29B674"/>
<path d="M39.5201 1.12H42.0801V3.67999H39.5201V1.12Z" fill="#29B674"/>
<path d="M42.0801 1.12H44.6401V3.67999H42.0801V1.12Z" fill="#29B674"/>
<path d="M44.6401 1.12H47.2001V3.67999H44.6401V1.12Z" fill="#29B674"/>
<path d="M47.2001 1.12H49.7601V3.67999H47.2001V1.12Z" fill="#29B674"/>
<path d="M49.7601 1.12H52.3201V3.67999H49.7601V1.12Z" fill="#29B674"/>
<path d="M52.3201 1.12C52.9991 1.12 53.6502 1.38971 54.1303 1.8698C54.6104 2.34989 54.8801 3.00104 54.8801 3.67999H52.3201V1.12Z" fill="#29B674"/>
<path d="M1.12012 3.67999H3.68012V6.23999H1.12012V3.67999Z" fill="#29B674"/>
<path d="M16.4801 3.67999H19.0401V6.23999H16.4801V3.67999Z" fill="#29B674"/>
<path d="M24.1601 4.95999C24.1601 4.62052 24.295 4.29494 24.535 4.0549C24.7751 3.81485 25.1006 3.67999 25.4401 3.67999C25.7796 3.67999 26.1052 3.81485 26.3452 4.0549C26.5853 4.29494 26.7201 4.62052 26.7201 4.95999V6.23999H24.1601V4.95999Z" fill="#29B674"/>
<path d="M29.2801 6.23999C29.2801 5.56104 29.5498 4.90989 30.0299 4.4298C30.51 3.94971 31.1612 3.67999 31.8401 3.67999V6.23999H29.2801Z" fill="#29B674"/>
<path d="M33.1201 3.67999C33.4596 3.67999 33.7852 3.81485 34.0252 4.0549C34.2653 4.29494 34.4001 4.62052 34.4001 4.95999C34.4001 5.29947 34.2653 5.62504 34.0252 5.86509C33.7852 6.10514 33.4596 6.23999 33.1201 6.23999H31.8401V3.67999H33.1201Z" fill="#29B674"/>
<path d="M36.9601 3.67999H39.5201V6.23999H36.9601V3.67999Z" fill="#29B674"/>
<path d="M52.3201 3.67999H54.8801V6.23999H52.3201V3.67999Z" fill="#29B674"/>
<path d="M1.12012 6.23999H3.68012V8.79999H1.12012V6.23999Z" fill="#29B674"/>
<path d="M6.24012 8.79999C6.24012 8.12104 6.50983 7.46989 6.98992 6.9898C7.47002 6.50971 8.12116 6.23999 8.80012 6.23999V8.79999H6.24012Z" fill="#29B674"/>
<path d="M8.80012 6.23999H11.3601V8.79999H8.80012V6.23999Z" fill="#29B674"/>
<path d="M11.3601 6.23999C12.0391 6.23999 12.6902 6.50971 13.1703 6.9898C13.6504 7.46989 13.9201 8.12104 13.9201 8.79999H11.3601V6.23999Z" fill="#29B674"/>
<path d="M16.4801 6.23999H19.0401V8.79999H16.4801V6.23999Z" fill="#29B674"/>
<path d="M21.6001 8.79999C21.6001 8.12104 21.8698 7.46989 22.3499 6.9898C22.83 6.50971 23.4812 6.23999 24.1601 6.23999V8.79999H21.6001Z" fill="#29B674"/>
<path d="M24.1601 8.79999C24.8391 8.79999 25.4902 8.53028 25.9703 8.05019C26.4504 7.57009 26.7201 6.91895 26.7201 6.23999H24.1601V8.79999Z" fill="#29B674"/>
<path d="M29.2801 6.23999H31.8401V8.79999H29.2801V6.23999Z" fill="#29B674"/>
<path d="M36.9601 6.23999H39.5201V8.79999H36.9601V6.23999Z" fill="#29B674"/>
<path d="M42.0801 8.79999C42.0801 8.12104 42.3498 7.46989 42.8299 6.9898C43.31 6.50971 43.9612 6.23999 44.6401 6.23999V8.79999H42.0801Z" fill="#29B674"/>
<path d="M44.6401 6.23999H47.2001V8.79999H44.6401V6.23999Z" fill="#29B674"/>
<path d="M47.2001 6.23999C47.8791 6.23999 48.5302 6.50971 49.0103 6.9898C49.4904 7.46989 49.7601 8.12104 49.7601 8.79999H47.2001V6.23999Z" fill="#29B674"/>
<path d="M52.3201 6.23999H54.8801V8.79999H52.3201V6.23999Z" fill="#29B674"/>
<path d="M1.12012 8.79999H3.68012V11.36H1.12012V8.79999Z" fill="#29B674"/>
<path d="M6.24012 8.79999H8.80012V11.36H6.24012V8.79999Z" fill="#29B674"/>
<path d="M8.80012 8.79999H11.3601V11.36H8.80012V8.79999Z" fill="#29B674"/>
<path d="M11.3601 8.79999H13.9201V11.36H11.3601V8.79999Z" fill="#29B674"/>
<path d="M16.4801 8.79999H19.0401V11.36H16.4801V8.79999Z" fill="#29B674"/>
<path d="M21.6001 10.08C21.6001 10.4195 21.735 10.745 21.975 10.9851C22.2151 11.2251 22.5406 11.36 22.8801 11.36C23.2196 11.36 23.5452 11.2251 23.7852 10.9851C24.0253 10.745 24.1601 10.4195 24.1601 10.08V8.79999H21.6001V10.08Z" fill="#29B674"/>
<path d="M28.0001 8.79999C27.6606 8.79999 27.3351 8.93485 27.095 9.1749C26.855 9.41494 26.7201 9.74052 26.7201 10.08C26.7201 10.4195 26.855 10.745 27.095 10.9851C27.3351 11.2251 27.6606 11.36 28.0001 11.36H29.2801V8.79999H28.0001Z" fill="#29B674"/>
<path d="M29.2801 8.79999H31.8401V11.36H29.2801V8.79999Z" fill="#29B674"/>
<path d="M36.9601 8.79999H39.5201V11.36H36.9601V8.79999Z" fill="#29B674"/>
<path d="M42.0801 8.79999H44.6401V11.36H42.0801V8.79999Z" fill="#29B674"/>
<path d="M44.6401 8.79999H47.2001V11.36H44.6401V8.79999Z" fill="#29B674"/>
<path d="M47.2001 8.79999H49.7601V11.36H47.2001V8.79999Z" fill="#29B674"/>
<path d="M52.3201 8.79999H54.8801V11.36H52.3201V8.79999Z" fill="#29B674"/>
<path d="M1.12012 11.36H3.68012V13.92H1.12012V11.36Z" fill="#29B674"/>
<path d="M6.24012 11.36C6.24012 12.0389 6.50983 12.6901 6.98992 13.1702C7.47002 13.6503 8.12116 13.92 8.80012 13.92V11.36H6.24012Z" fill="#29B674"/>
<path d="M8.80012 11.36H11.3601V13.92H8.80012V11.36Z" fill="#29B674"/>
<path d="M11.3601 13.92C12.0391 13.92 12.6902 13.6503 13.1703 13.1702C13.6504 12.6901 13.9201 12.0389 13.9201 11.36H11.3601V13.92Z" fill="#29B674"/>
<path d="M16.4801 11.36H19.0401V13.92H16.4801V11.36Z" fill="#29B674"/>
<path d="M24.1601 12.64C24.1601 12.3005 24.295 11.9749 24.535 11.7349C24.7751 11.4949 25.1006 11.36 25.4401 11.36C25.7796 11.36 26.1052 11.4949 26.3452 11.7349C26.5853 11.9749 26.7201 12.3005 26.7201 12.64V13.92H24.1601V12.64Z" fill="#29B674"/>
<path d="M29.2801 11.36H31.8401V13.92H29.2801V11.36Z" fill="#29B674"/>
<path d="M36.9601 11.36H39.5201V13.92H36.9601V11.36Z" fill="#29B674"/>
<path d="M42.0801 11.36C42.0801 12.0389 42.3498 12.6901 42.8299 13.1702C43.31 13.6503 43.9612 13.92 44.6401 13.92V11.36H42.0801Z" fill="#29B674"/>
<path d="M44.6401 11.36H47.2001V13.92H44.6401V11.36Z" fill="#29B674"/>
<path d="M47.2001 13.92C47.8791 13.92 48.5302 13.6503 49.0103 13.1702C49.4904 12.6901 49.7601 12.0389 49.7601 11.36H47.2001V13.92Z" fill="#29B674"/>
<path d="M52.3201 11.36H54.8801V13.92H52.3201V11.36Z" fill="#29B674"/>
<path d="M1.12012 13.92H3.68012V16.48H1.12012V13.92Z" fill="#29B674"/>
<path d="M16.4801 13.92H19.0401V16.48H16.4801V13.92Z" fill="#29B674"/>
<path d="M24.1601 15.2C24.1601 15.5395 24.295 15.865 24.535 16.1051C24.7751 16.3451 25.1006 16.48 25.4401 16.48C25.7796 16.48 26.1052 16.3451 26.3452 16.1051C26.5853 15.865 26.7201 15.5395 26.7201 15.2V13.92H24.1601V15.2Z" fill="#29B674"/>
<path d="M29.2801 15.2C29.2801 15.5395 29.415 15.865 29.655 16.1051C29.8951 16.3451 30.2206 16.48 30.5601 16.48C30.8996 16.48 31.2252 16.3451 31.4652 16.1051C31.7053 15.865 31.8401 15.5395 31.8401 15.2V13.92H29.2801V15.2Z" fill="#29B674"/>
<path d="M36.9601 13.92H39.5201V16.48H36.9601V13.92Z" fill="#29B674"/>
<path d="M52.3201 13.92H54.8801V16.48H52.3201V13.92Z" fill="#29B674"/>
<path d="M1.12012 16.48C1.12012 17.1589 1.38983 17.8101 1.86992 18.2902C2.35002 18.7703 3.00116 19.04 3.68012 19.04V16.48H1.12012Z" fill="#29B674"/>
<path d="M3.68012 16.48H6.24012V19.04H3.68012V16.48Z" fill="#29B674"/>
<path d="M6.24012 16.48H8.80012V19.04H6.24012V16.48Z" fill="#29B674"/>
<path d="M8.80012 16.48H11.3601V19.04H8.80012V16.48Z" fill="#29B674"/>
<path d="M11.3601 16.48H13.9201V19.04H11.3601V16.48Z" fill="#29B674"/>
<path d="M13.9201 16.48H16.4801V19.04H13.9201V16.48Z" fill="#29B674"/>
<path d="M16.4801 19.04C17.1591 19.04 17.8102 18.7703 18.2903 18.2902C18.7704 17.8101 19.0401 17.1589 19.0401 16.48H16.4801V19.04Z" fill="#29B674"/>
<path d="M22.8801 16.48C23.2196 16.48 23.5452 16.6149 23.7852 16.8549C24.0253 17.0949 24.1601 17.4205 24.1601 17.76C24.1601 18.0995 24.0253 18.425 23.7852 18.6651C23.5452 18.9051 23.2196 19.04 22.8801 19.04C22.5406 19.04 22.2151 18.9051 21.975 18.6651C21.735 18.425 21.6001 18.0995 21.6001 17.76C21.6001 17.4205 21.735 17.0949 21.975 16.8549C22.2151 16.6149 22.5406 16.48 22.8801 16.48Z" fill="#29B674"/>
<path d="M28.0001 16.48C28.3396 16.48 28.6652 16.6149 28.9052 16.8549C29.1453 17.0949 29.2801 17.4205 29.2801 17.76C29.2801 18.0995 29.1453 18.425 28.9052 18.6651C28.6652 18.9051 28.3396 19.04 28.0001 19.04C27.6606 19.04 27.3351 18.9051 27.095 18.6651C26.855 18.425 26.7201 18.0995 26.7201 17.76C26.7201 17.4205 26.855 17.0949 27.095 16.8549C27.3351 16.6149 27.6606 16.48 28.0001 16.48Z" fill="#29B674"/>
<path d="M31.8401 17.76C31.8401 17.4205 31.975 17.0949 32.215 16.8549C32.4551 16.6149 32.7806 16.48 33.1201 16.48C33.4596 16.48 33.7852 16.6149 34.0252 16.8549C34.2653 17.0949 34.4001 17.4205 34.4001 17.76V19.04H31.8401V17.76Z" fill="#29B674"/>
<path d="M36.9601 16.48C36.9601 17.1589 37.2298 17.8101 37.7099 18.2902C38.19 18.7703 38.8412 19.04 39.5201 19.04V16.48H36.9601Z" fill="#29B674"/>
<path d="M39.5201 16.48H42.0801V19.04H39.5201V16.48Z" fill="#29B674"/>
<path d="M42.0801 16.48H44.6401V19.04H42.0801V16.48Z" fill="#29B674"/>
<path d="M44.6401 16.48H47.2001V19.04H44.6401V16.48Z" fill="#29B674"/>
<path d="M47.2001 16.48H49.7601V19.04H47.2001V16.48Z" fill="#29B674"/>
<path d="M49.7601 16.48H52.3201V19.04H49.7601V16.48Z" fill="#29B674"/>
<path d="M52.3201 19.04C52.9991 19.04 53.6502 18.7703 54.1303 18.2902C54.6104 17.8101 54.8801 17.1589 54.8801 16.48H52.3201V19.04Z" fill="#29B674"/>
<path d="M30.5601 19.04C30.2206 19.04 29.8951 19.1749 29.655 19.4149C29.415 19.6549 29.2801 19.9805 29.2801 20.32C29.2801 20.6595 29.415 20.985 29.655 21.2251C29.8951 21.4651 30.2206 21.6 30.5601 21.6H31.8401V19.04H30.5601Z" fill="#29B674"/>
<path d="M31.8401 21.6C32.5191 21.6 33.1702 21.3303 33.6503 20.8502C34.1304 20.3701 34.4001 19.7189 34.4001 19.04H31.8401V21.6Z" fill="#29B674"/>
<path d="M10.0801 21.6C9.74064 21.6 9.41507 21.7349 9.17502 21.9749C8.93497 22.2149 8.80012 22.5405 8.80012 22.88C8.80012 23.2195 8.93497 23.545 9.17502 23.7851C9.41507 24.0251 9.74064 24.16 10.0801 24.16H11.3601V21.6H10.0801Z" fill="#29B674"/>
<path d="M12.6401 21.6C12.9796 21.6 13.3052 21.7349 13.5452 21.9749C13.7853 22.2149 13.9201 22.5405 13.9201 22.88C13.9201 23.2195 13.7853 23.545 13.5452 23.7851C13.3052 24.0251 12.9796 24.16 12.6401 24.16H11.3601V21.6H12.6401Z" fill="#29B674"/>
<path d="M17.7601 21.6C17.4206 21.6 17.0951 21.7349 16.855 21.9749C16.615 22.2149 16.4801 22.5405 16.4801 22.88C16.4801 23.2195 16.615 23.545 16.855 23.7851C17.0951 24.0251 17.4206 24.16 17.7601 24.16H19.0401V21.6H17.7601Z" fill="#29B674"/>
<path d="M20.3201 21.6C20.6596 21.6 20.9852 21.7349 21.2252 21.9749C21.4653 22.2149 21.6001 22.5405 21.6001 22.88C21.6001 23.2195 21.4653 23.545 21.2252 23.7851C20.9852 24.0251 20.6596 24.16 20.3201 24.16H19.0401V21.6H20.3201Z" fill="#29B674"/>
<path d="M26.7201 22.88C26.7201 22.5405 26.855 22.2149 27.095 21.9749C27.3351 21.7349 27.6606 21.6 28.0001 21.6C28.3396 21.6 28.6652 21.7349 28.9052 21.9749C29.1453 22.2149 29.2801 22.5405 29.2801 22.88V24.16H26.7201V22.88Z" fill="#29B674"/>
<path d="M44.6401 24.16C44.6401 23.481 44.9098 22.8299 45.3899 22.3498C45.87 21.8697 46.5212 21.6 47.2001 21.6V24.16H44.6401Z" fill="#29B674"/>
<path d="M47.2001 21.6C47.8791 21.6 48.5302 21.8697 49.0103 22.3498C49.4904 22.8299 49.7601 23.481 49.7601 24.16H47.2001V21.6Z" fill="#29B674"/>
<path d="M1.12012 26.72C1.12012 26.041 1.38983 25.3899 1.86992 24.9098C2.35002 24.4297 3.00116 24.16 3.68012 24.16V26.72H1.12012Z" fill="#29B674"/>
<path d="M3.68012 24.16C4.35907 24.16 5.01022 24.4297 5.49031 24.9098C5.9704 25.3899 6.24012 26.041 6.24012 26.72H3.68012V24.16Z" fill="#29B674"/>
<path d="M26.7201 24.16H29.2801V26.72H26.7201V24.16Z" fill="#29B674"/>
<path d="M29.2801 24.16H31.8401V26.72H29.2801V24.16Z" fill="#29B674"/>
<path d="M31.8401 24.16H34.4001V26.72H31.8401V24.16Z" fill="#29B674"/>
<path d="M34.4001 24.16C35.0791 24.16 35.7302 24.4297 36.2103 24.9098C36.6904 25.3899 36.9601 26.041 36.9601 26.72H34.4001V24.16Z" fill="#29B674"/>
<path d="M39.5201 26.72C39.5201 26.041 39.7898 25.3899 40.2699 24.9098C40.75 24.4297 41.4012 24.16 42.0801 24.16V26.72H39.5201Z" fill="#29B674"/>
<path d="M42.0801 24.16H44.6401V26.72H42.0801V24.16Z" fill="#29B674"/>
<path d="M44.6401 24.16H47.2001V26.72H44.6401V24.16Z" fill="#29B674"/>
<path d="M47.2001 24.16H49.7601V26.72H47.2001V24.16Z" fill="#29B674"/>
<path d="M49.7601 24.16C50.4391 24.16 51.0902 24.4297 51.5703 24.9098C52.0504 25.3899 52.3201 26.041 52.3201 26.72H49.7601V24.16Z" fill="#29B674"/>
<path d="M1.12012 26.72C1.12012 27.3989 1.38983 28.0501 1.86992 28.5302C2.35002 29.0103 3.00116 29.28 3.68012 29.28V26.72H1.12012Z" fill="#29B674"/>
<path d="M3.68012 26.72H6.24012V29.28H3.68012V26.72Z" fill="#29B674"/>
<path d="M6.24012 26.72H8.80012V29.28H6.24012V26.72Z" fill="#29B674"/>
<path d="M8.80012 26.72H11.3601V29.28H8.80012V26.72Z" fill="#29B674"/>
<path d="M11.3601 26.72C12.0391 26.72 12.6902 26.9897 13.1703 27.4698C13.6504 27.9499 13.9201 28.601 13.9201 29.28H11.3601V26.72Z" fill="#29B674"/>
<path d="M17.7601 26.72C17.4206 26.72 17.0951 26.8549 16.855 27.0949C16.615 27.3349 16.4801 27.6605 16.4801 28C16.4801 28.3395 16.615 28.665 16.855 28.9051C17.0951 29.1451 17.4206 29.28 17.7601 29.28H19.0401V26.72H17.7601Z" fill="#29B674"/>
<path d="M19.0401 26.72H21.6001V29.28H19.0401V26.72Z" fill="#29B674"/>
<path d="M21.6001 26.72C22.2791 26.72 22.9302 26.9897 23.4103 27.4698C23.8904 27.9499 24.1601 28.601 24.1601 29.28H21.6001V26.72Z" fill="#29B674"/>
<path d="M26.7201 26.72C26.7201 27.3989 26.9898 28.0501 27.4699 28.5302C27.95 29.0103 28.6012 29.28 29.2801 29.28V26.72H26.7201Z" fill="#29B674"/>
<path d="M29.2801 29.28C29.9591 29.28 30.6102 29.0103 31.0903 28.5302C31.5704 28.0501 31.8401 27.3989 31.8401 26.72H29.2801V29.28Z" fill="#29B674"/>
<path d="M34.4001 26.72H36.9601V29.28H34.4001V26.72Z" fill="#29B674"/>
<path d="M39.5201 26.72H42.0801V29.28H39.5201V26.72Z" fill="#29B674"/>
<path d="M44.6401 26.72C44.6401 27.3989 44.9098 28.0501 45.3899 28.5302C45.87 29.0103 46.5212 29.28 47.2001 29.28V26.72H44.6401Z" fill="#29B674"/>
<path d="M47.2001 26.72H49.7601V29.28H47.2001V26.72Z" fill="#29B674"/>
<path d="M49.7601 26.72H52.3201V29.28H49.7601V26.72Z" fill="#29B674"/>
<path d="M53.6001 26.72C53.9396 26.72 54.2652 26.8549 54.5052 27.0949C54.7453 27.3349 54.8801 27.6605 54.8801 28C54.8801 28.3395 54.7453 28.665 54.5052 28.9051C54.2652 29.1451 53.9396 29.28 53.6001 29.28H52.3201V26.72H53.6001Z" fill="#29B674"/>
<path d="M6.24012 29.28H8.80012V31.84H6.24012V29.28Z" fill="#29B674"/>
<path d="M11.3601 29.28H13.9201V31.84H11.3601V29.28Z" fill="#29B674"/>
<path d="M19.0401 29.28C19.0401 29.9589 19.3098 30.6101 19.7899 31.0902C20.27 31.5703 20.9212 31.84 21.6001 31.84V29.28H19.0401Z" fill="#29B674"/>
<path d="M21.6001 29.28H24.1601V31.84H21.6001V29.28Z" fill="#29B674"/>
<path d="M33.1201 29.28C32.7806 29.28 32.4551 29.4149 32.215 29.6549C31.975 29.8949 31.8401 30.2205 31.8401 30.56C31.8401 30.8995 31.975 31.225 32.215 31.4651C32.4551 31.7051 32.7806 31.84 33.1201 31.84H34.4001V29.28H33.1201Z" fill="#29B674"/>
<path d="M34.4001 29.28H36.9601V31.84H34.4001V29.28Z" fill="#29B674"/>
<path d="M39.5201 29.28H42.0801V31.84H39.5201V29.28Z" fill="#29B674"/>
<path d="M42.0801 29.28C42.7591 29.28 43.4102 29.5497 43.8903 30.0298C44.3704 30.5099 44.6401 31.161 44.6401 31.84H42.0801V29.28Z" fill="#29B674"/>
<path d="M47.2001 30.56C47.2001 30.8995 47.335 31.225 47.575 31.4651C47.8151 31.7051 48.1406 31.84 48.4801 31.84C48.8196 31.84 49.1452 31.7051 49.3852 31.4651C49.6253 31.225 49.7601 30.8995 49.7601 30.56V29.28H47.2001V30.56Z" fill="#29B674"/>
<path d="M2.40012 31.84C2.73959 31.84 3.06517 31.9749 3.30521 32.2149C3.54526 32.4549 3.68012 32.7805 3.68012 33.12C3.68012 33.4595 3.54526 33.785 3.30521 34.0251C3.06517 34.2651 2.73959 34.4 2.40012 34.4C2.06064 34.4 1.73507 34.2651 1.49502 34.0251C1.25497 33.785 1.12012 33.4595 1.12012 33.12C1.12012 32.7805 1.25497 32.4549 1.49502 32.2149C1.73507 31.9749 2.06064 31.84 2.40012 31.84Z" fill="#29B674"/>
<path d="M6.24012 31.84C6.24012 32.5189 6.50983 33.1701 6.98992 33.6502C7.47002 34.1303 8.12116 34.4 8.80012 34.4V31.84H6.24012Z" fill="#29B674"/>
<path d="M8.80012 31.84H11.3601V34.4H8.80012V31.84Z" fill="#29B674"/>
<path d="M11.3601 31.84H13.9201V34.4H11.3601V31.84Z" fill="#29B674"/>
<path d="M13.9201 31.84H16.4801V34.4H13.9201V31.84Z" fill="#29B674"/>
<path d="M17.7601 31.84C18.0996 31.84 18.4252 31.9749 18.6652 32.2149C18.9053 32.4549 19.0401 32.7805 19.0401 33.12C19.0401 33.4595 18.9053 33.785 18.6652 34.0251C18.4252 34.2651 18.0996 34.4 17.7601 34.4H16.4801V31.84H17.7601Z" fill="#29B674"/>
<path d="M21.6001 31.84H24.1601V34.4H21.6001V31.84Z" fill="#29B674"/>
<path d="M25.4401 31.84C25.7796 31.84 26.1052 31.9749 26.3452 32.2149C26.5853 32.4549 26.7201 32.7805 26.7201 33.12C26.7201 33.4595 26.5853 33.785 26.3452 34.0251C26.1052 34.2651 25.7796 34.4 25.4401 34.4H24.1601V31.84H25.4401Z" fill="#29B674"/>
<path d="M34.4001 33.12C34.4001 33.4595 34.535 33.785 34.775 34.0251C35.0151 34.2651 35.3406 34.4 35.6801 34.4C36.0196 34.4 36.3452 34.2651 36.5852 34.0251C36.8253 33.785 36.9601 33.4595 36.9601 33.12V31.84H34.4001V33.12Z" fill="#29B674"/>
<path d="M39.5201 31.84C39.5201 32.5189 39.7898 33.1701 40.2699 33.6502C40.75 34.1303 41.4012 34.4 42.0801 34.4V31.84H39.5201Z" fill="#29B674"/>
<path d="M42.0801 34.4C42.7591 34.4 43.4102 34.1303 43.8903 33.6502C44.3704 33.1701 44.6401 32.5189 44.6401 31.84H42.0801V34.4Z" fill="#29B674"/>
<path d="M49.7601 33.12C49.7601 32.7805 49.895 32.4549 50.135 32.2149C50.3751 31.9749 50.7006 31.84 51.0401 31.84C51.3796 31.84 51.7052 31.9749 51.9452 32.2149C52.1853 32.4549 52.3201 32.7805 52.3201 33.12V34.4H49.7601V33.12Z" fill="#29B674"/>
<path d="M21.6001 34.4H24.1601V36.96H21.6001V34.4Z" fill="#29B674"/>
<path d="M28.0001 34.4C28.3396 34.4 28.6652 34.5348 28.9052 34.7749C29.1453 35.0149 29.2801 35.3405 29.2801 35.68C29.2801 36.0195 29.1453 36.345 28.9052 36.5851C28.6652 36.8251 28.3396 36.96 28.0001 36.96C27.6606 36.96 27.3351 36.8251 27.095 36.5851C26.855 36.345 26.7201 36.0195 26.7201 35.68C26.7201 35.3405 26.855 35.0149 27.095 34.7749C27.3351 34.5348 27.6606 34.4 28.0001 34.4Z" fill="#29B674"/>
<path d="M36.9601 35.68C36.9601 35.3405 37.095 35.0149 37.335 34.7749C37.5751 34.5348 37.9006 34.4 38.2401 34.4C38.5796 34.4 38.9052 34.5348 39.1452 34.7749C39.3853 35.0149 39.5201 35.3405 39.5201 35.68V36.96H36.9601V35.68Z" fill="#29B674"/>
<path d="M45.9201 34.4C45.5806 34.4 45.2551 34.5348 45.015 34.7749C44.775 35.0149 44.6401 35.3405 44.6401 35.68C44.6401 36.0195 44.775 36.345 45.015 36.5851C45.2551 36.8251 45.5806 36.96 45.9201 36.96H47.2001V34.4H45.9201Z" fill="#29B674"/>
<path d="M47.2001 34.4H49.7601V36.96H47.2001V34.4Z" fill="#29B674"/>
<path d="M49.7601 36.96C50.4391 36.96 51.0902 36.6903 51.5703 36.2102C52.0504 35.7301 52.3201 35.0789 52.3201 34.4H49.7601V36.96Z" fill="#29B674"/>
<path d="M1.12012 39.52C1.12012 38.841 1.38983 38.1899 1.86992 37.7098C2.35002 37.2297 3.00116 36.96 3.68012 36.96V39.52H1.12012Z" fill="#29B674"/>
<path d="M3.68012 36.96H6.24012V39.52H3.68012V36.96Z" fill="#29B674"/>
<path d="M6.24012 36.96H8.80012V39.52H6.24012V36.96Z" fill="#29B674"/>
<path d="M8.80012 36.96H11.3601V39.52H8.80012V36.96Z" fill="#29B674"/>
<path d="M11.3601 36.96H13.9201V39.52H11.3601V36.96Z" fill="#29B674"/>
<path d="M13.9201 36.96H16.4801V39.52H13.9201V36.96Z" fill="#29B674"/>
<path d="M16.4801 36.96C17.1591 36.96 17.8102 37.2297 18.2903 37.7098C18.7704 38.1899 19.0401 38.841 19.0401 39.52H16.4801V36.96Z" fill="#29B674"/>
<path d="M21.6001 36.96C21.6001 37.6389 21.8698 38.2901 22.3499 38.7702C22.83 39.2503 23.4812 39.52 24.1601 39.52V36.96H21.6001Z" fill="#29B674"/>
<path d="M25.4401 36.96C25.7796 36.96 26.1052 37.0948 26.3452 37.3349C26.5853 37.5749 26.7201 37.9005 26.7201 38.24C26.7201 38.5795 26.5853 38.905 26.3452 39.1451C26.1052 39.3851 25.7796 39.52 25.4401 39.52H24.1601V36.96H25.4401Z" fill="#29B674"/>
<path d="M34.4001 39.52C34.4001 38.841 34.6698 38.1899 35.1499 37.7098C35.63 37.2297 36.2812 36.96 36.9601 36.96V39.52H34.4001Z" fill="#29B674"/>
<path d="M36.9601 39.52C37.6391 39.52 38.2902 39.2503 38.7703 38.7702C39.2504 38.2901 39.5201 37.6389 39.5201 36.96H36.9601V39.52Z" fill="#29B674"/>
<path d="M47.2001 36.96H49.7601V39.52H47.2001V36.96Z" fill="#29B674"/>
<path d="M1.12012 39.52H3.68012V42.08H1.12012V39.52Z" fill="#29B674"/>
<path d="M16.4801 39.52H19.0401V42.08H16.4801V39.52Z" fill="#29B674"/>
<path d="M30.5601 39.52C30.8996 39.52 31.2252 39.6548 31.4652 39.8949C31.7053 40.1349 31.8401 40.4605 31.8401 40.8C31.8401 41.1395 31.7053 41.465 31.4652 41.7051C31.2252 41.9451 30.8996 42.08 30.5601 42.08C30.2206 42.08 29.8951 41.9451 29.655 41.7051C29.415 41.465 29.2801 41.1395 29.2801 40.8C29.2801 40.4605 29.415 40.1349 29.655 39.8949C29.8951 39.6548 30.2206 39.52 30.5601 39.52Z" fill="#29B674"/>
<path d="M34.4001 40.8C34.4001 41.1395 34.535 41.465 34.775 41.7051C35.0151 41.9451 35.3406 42.08 35.6801 42.08C36.0196 42.08 36.3452 41.9451 36.5852 41.7051C36.8253 41.465 36.9601 41.1395 36.9601 40.8V39.52H34.4001V40.8Z" fill="#29B674"/>
<path d="M45.9201 39.52C45.5806 39.52 45.2551 39.6548 45.015 39.8949C44.775 40.1349 44.6401 40.4605 44.6401 40.8C44.6401 41.1395 44.775 41.465 45.015 41.7051C45.2551 41.9451 45.5806 42.08 45.9201 42.08H47.2001V39.52H45.9201Z" fill="#29B674"/>
<path d="M47.2001 39.52H49.7601V42.08H47.2001V39.52Z" fill="#29B674"/>
<path d="M49.7601 39.52H52.3201V42.08H49.7601V39.52Z" fill="#29B674"/>
<path d="M52.3201 39.52C52.9991 39.52 53.6502 39.7897 54.1303 40.2698C54.6104 40.7499 54.8801 41.401 54.8801 42.08H52.3201V39.52Z" fill="#29B674"/>
<path d="M1.12012 42.08H3.68012V44.64H1.12012V42.08Z" fill="#29B674"/>
<path d="M6.24012 44.64C6.24012 43.961 6.50983 43.3099 6.98992 42.8298C7.47002 42.3497 8.12116 42.08 8.80012 42.08V44.64H6.24012Z" fill="#29B674"/>
<path d="M8.80012 42.08H11.3601V44.64H8.80012V42.08Z" fill="#29B674"/>
<path d="M11.3601 42.08C12.0391 42.08 12.6902 42.3497 13.1703 42.8298C13.6504 43.3099 13.9201 43.961 13.9201 44.64H11.3601V42.08Z" fill="#29B674"/>
<path d="M16.4801 42.08H19.0401V44.64H16.4801V42.08Z" fill="#29B674"/>
<path d="M21.6001 44.64C21.6001 43.961 21.8698 43.3099 22.3499 42.8298C22.83 42.3497 23.4812 42.08 24.1601 42.08V44.64H21.6001Z" fill="#29B674"/>
<path d="M24.1601 42.08H26.7201V44.64H24.1601V42.08Z" fill="#29B674"/>
<path d="M28.0001 42.08C28.3396 42.08 28.6652 42.2148 28.9052 42.4549C29.1453 42.6949 29.2801 43.0205 29.2801 43.36C29.2801 43.6995 29.1453 44.025 28.9052 44.2651C28.6652 44.5051 28.3396 44.64 28.0001 44.64H26.7201V42.08H28.0001Z" fill="#29B674"/>
<path d="M33.1201 42.08C33.4596 42.08 33.7852 42.2148 34.0252 42.4549C34.2653 42.6949 34.4001 43.0205 34.4001 43.36C34.4001 43.6995 34.2653 44.025 34.0252 44.2651C33.7852 44.5051 33.4596 44.64 33.1201 44.64C32.7806 44.64 32.4551 44.5051 32.215 44.2651C31.975 44.025 31.8401 43.6995 31.8401 43.36C31.8401 43.0205 31.975 42.6949 32.215 42.4549C32.4551 42.2148 32.7806 42.08 33.1201 42.08Z" fill="#29B674"/>
<path d="M38.2401 42.08C38.5796 42.08 38.9052 42.2148 39.1452 42.4549C39.3853 42.6949 39.5201 43.0205 39.5201 43.36C39.5201 43.6995 39.3853 44.025 39.1452 44.2651C38.9052 44.5051 38.5796 44.64 38.2401 44.64C37.9006 44.64 37.5751 44.5051 37.335 44.2651C37.095 44.025 36.9601 43.6995 36.9601 43.36C36.9601 43.0205 37.095 42.6949 37.335 42.4549C37.5751 42.2148 37.9006 42.08 38.2401 42.08Z" fill="#29B674"/>
<path d="M42.0801 43.36C42.0801 43.0205 42.215 42.6949 42.455 42.4549C42.6951 42.2148 43.0206 42.08 43.3601 42.08C43.6996 42.08 44.0252 42.2148 44.2652 42.4549C44.5053 42.6949 44.6401 43.0205 44.6401 43.36V44.64H42.0801V43.36Z" fill="#29B674"/>
<path d="M49.7601 42.08C49.7601 42.7589 50.0298 43.4101 50.5099 43.8902C50.99 44.3703 51.6412 44.64 52.3201 44.64V42.08H49.7601Z" fill="#29B674"/>
<path d="M52.3201 44.64C52.9991 44.64 53.6502 44.3703 54.1303 43.8902C54.6104 43.4101 54.8801 42.7589 54.8801 42.08H52.3201V44.64Z" fill="#29B674"/>
<path d="M1.12012 44.64H3.68012V47.2H1.12012V44.64Z" fill="#29B674"/>
<path d="M6.24012 44.64H8.80012V47.2H6.24012V44.64Z" fill="#29B674"/>
<path d="M8.80012 44.64H11.3601V47.2H8.80012V44.64Z" fill="#29B674"/>
<path d="M11.3601 44.64H13.9201V47.2H11.3601V44.64Z" fill="#29B674"/>
<path d="M16.4801 44.64H19.0401V47.2H16.4801V44.64Z" fill="#29B674"/>
<path d="M21.6001 44.64C21.6001 45.3189 21.8698 45.9701 22.3499 46.4502C22.83 46.9303 23.4812 47.2 24.1601 47.2V44.64H21.6001Z" fill="#29B674"/>
<path d="M24.1601 44.64H26.7201V47.2H24.1601V44.64Z" fill="#29B674"/>
<path d="M35.6801 44.64C36.0196 44.64 36.3452 44.7748 36.5852 45.0149C36.8253 45.2549 36.9601 45.5805 36.9601 45.92C36.9601 46.2595 36.8253 46.585 36.5852 46.8251C36.3452 47.0651 36.0196 47.2 35.6801 47.2C35.3406 47.2 35.0151 47.0651 34.775 46.8251C34.535 46.585 34.4001 46.2595 34.4001 45.92C34.4001 45.5805 34.535 45.2549 34.775 45.0149C35.0151 44.7748 35.3406 44.64 35.6801 44.64Z" fill="#29B674"/>
<path d="M42.0801 44.64H44.6401V47.2H42.0801V44.64Z" fill="#29B674"/>
<path d="M44.6401 44.64H47.2001V47.2H44.6401V44.64Z" fill="#29B674"/>
<path d="M47.2001 44.64C47.8791 44.64 48.5302 44.9097 49.0103 45.3898C49.4904 45.8699 49.7601 46.521 49.7601 47.2H47.2001V44.64Z" fill="#29B674"/>
<path d="M1.12012 47.2H3.68012V49.76H1.12012V47.2Z" fill="#29B674"/>
<path d="M6.24012 47.2C6.24012 47.8789 6.50983 48.5301 6.98992 49.0102C7.47002 49.4903 8.12116 49.76 8.80012 49.76V47.2H6.24012Z" fill="#29B674"/>
<path d="M8.80012 47.2H11.3601V49.76H8.80012V47.2Z" fill="#29B674"/>
<path d="M11.3601 49.76C12.0391 49.76 12.6902 49.4903 13.1703 49.0102C13.6504 48.5301 13.9201 47.8789 13.9201 47.2H11.3601V49.76Z" fill="#29B674"/>
<path d="M16.4801 47.2H19.0401V49.76H16.4801V47.2Z" fill="#29B674"/>
<path d="M24.1601 48.48C24.1601 48.8195 24.295 49.145 24.535 49.3851C24.7751 49.6251 25.1006 49.76 25.4401 49.76C25.7796 49.76 26.1052 49.6251 26.3452 49.3851C26.5853 49.145 26.7201 48.8195 26.7201 48.48V47.2H24.1601V48.48Z" fill="#29B674"/>
<path d="M39.5201 49.76C39.5201 49.081 39.7898 48.4299 40.2699 47.9498C40.75 47.4697 41.4012 47.2 42.0801 47.2V49.76H39.5201Z" fill="#29B674"/>
<path d="M42.0801 47.2H44.6401V49.76H42.0801V47.2Z" fill="#29B674"/>
<path d="M44.6401 47.2H47.2001V49.76H44.6401V47.2Z" fill="#29B674"/>
<path d="M47.2001 47.2H49.7601V49.76H47.2001V47.2Z" fill="#29B674"/>
<path d="M49.7601 47.2H52.3201V49.76H49.7601V47.2Z" fill="#29B674"/>
<path d="M52.3201 47.2C52.9991 47.2 53.6502 47.4697 54.1303 47.9498C54.6104 48.4299 54.8801 49.081 54.8801 49.76H52.3201V47.2Z" fill="#29B674"/>
<path d="M1.12012 49.76H3.68012V52.32H1.12012V49.76Z" fill="#29B674"/>
<path d="M16.4801 49.76H19.0401V52.32H16.4801V49.76Z" fill="#29B674"/>
<path d="M28.0001 49.76C27.6606 49.76 27.3351 49.8948 27.095 50.1349C26.855 50.3749 26.7201 50.7005 26.7201 51.04C26.7201 51.3795 26.855 51.705 27.095 51.9451C27.3351 52.1851 27.6606 52.32 28.0001 52.32H29.2801V49.76H28.0001Z" fill="#29B674"/>
<path d="M29.2801 49.76H31.8401V52.32H29.2801V49.76Z" fill="#29B674"/>
<path d="M31.8401 49.76H34.4001V52.32H31.8401V49.76Z" fill="#29B674"/>
<path d="M35.6801 49.76C36.0196 49.76 36.3452 49.8948 36.5852 50.1349C36.8253 50.3749 36.9601 50.7005 36.9601 51.04C36.9601 51.3795 36.8253 51.705 36.5852 51.9451C36.3452 52.1851 36.0196 52.32 35.6801 52.32H34.4001V49.76H35.6801Z" fill="#29B674"/>
<path d="M39.5201 49.76H42.0801V52.32H39.5201V49.76Z" fill="#29B674"/>
<path d="M42.0801 49.76H44.6401V52.32H42.0801V49.76Z" fill="#29B674"/>
<path d="M44.6401 49.76H47.2001V52.32H44.6401V49.76Z" fill="#29B674"/>
<path d="M47.2001 49.76H49.7601V52.32H47.2001V49.76Z" fill="#29B674"/>
<path d="M49.7601 49.76H52.3201V52.32H49.7601V49.76Z" fill="#29B674"/>
<path d="M52.3201 52.32C52.9991 52.32 53.6502 52.0503 54.1303 51.5702C54.6104 51.0901 54.8801 50.4389 54.8801 49.76H52.3201V52.32Z" fill="#29B674"/>
<path d="M1.12012 52.32C1.12012 52.9989 1.38983 53.6501 1.86992 54.1302C2.35002 54.6103 3.00116 54.88 3.68012 54.88V52.32H1.12012Z" fill="#29B674"/>
<path d="M3.68012 52.32H6.24012V54.88H3.68012V52.32Z" fill="#29B674"/>
<path d="M6.24012 52.32H8.80012V54.88H6.24012V52.32Z" fill="#29B674"/>
<path d="M8.80012 52.32H11.3601V54.88H8.80012V52.32Z" fill="#29B674"/>
<path d="M11.3601 52.32H13.9201V54.88H11.3601V52.32Z" fill="#29B674"/>
<path d="M13.9201 52.32H16.4801V54.88H13.9201V52.32Z" fill="#29B674"/>
<path d="M16.4801 54.88C17.1591 54.88 17.8102 54.6103 18.2903 54.1302C18.7704 53.6501 19.0401 52.9989 19.0401 52.32H16.4801V54.88Z" fill="#29B674"/>
<path d="M29.2801 52.32C29.2801 52.9989 29.5498 53.6501 30.0299 54.1302C30.51 54.6103 31.1612 54.88 31.8401 54.88V52.32H29.2801Z" fill="#29B674"/>
<path d="M31.8401 54.88C32.5191 54.88 33.1702 54.6103 33.6503 54.1302C34.1304 53.6501 34.4001 52.9989 34.4001 52.32H31.8401V54.88Z" fill="#29B674"/>
<path d="M38.2401 52.32C37.9006 52.32 37.5751 52.4548 37.335 52.6949C37.095 52.9349 36.9601 53.2605 36.9601 53.6C36.9601 53.9395 37.095 54.265 37.335 54.5051C37.5751 54.7451 37.9006 54.88 38.2401 54.88H39.5201V52.32H38.2401Z" fill="#29B674"/>
<path d="M39.5201 52.32H42.0801V54.88H39.5201V52.32Z" fill="#29B674"/>
<path d="M42.0801 52.32H44.6401V54.88H42.0801V52.32Z" fill="#29B674"/>
<path d="M44.6401 54.88C45.3191 54.88 45.9702 54.6103 46.4503 54.1302C46.9304 53.6501 47.2001 52.9989 47.2001 52.32H44.6401V54.88Z" fill="#29B674"/>
<path d="M1.12012 3.67999C1.12012 3.00104 1.38983 2.34989 1.86992 1.8698C2.35002 1.38971 3.00116 1.12 3.68012 1.12M1.12012 3.67999H3.68012M1.12012 3.67999V6.23999M3.68012 1.12V3.67999M3.68012 1.12H6.24012M3.68012 3.67999H6.24012M3.68012 3.67999V6.23999M6.24012 1.12V3.67999M6.24012 1.12H8.80012M6.24012 3.67999H8.80012M8.80012 1.12V3.67999M8.80012 1.12H11.3601M8.80012 3.67999H11.3601M11.3601 1.12V3.67999M11.3601 1.12H13.9201M11.3601 3.67999H13.9201M13.9201 1.12V3.67999M13.9201 1.12H16.4801M13.9201 3.67999H16.4801M16.4801 1.12V3.67999M16.4801 1.12C17.1591 1.12 17.8102 1.38971 18.2903 1.8698C18.7704 2.34989 19.0401 3.00104 19.0401 3.67999M16.4801 3.67999H19.0401M16.4801 3.67999V6.23999M19.0401 3.67999V6.23999M36.9601 3.67999C36.9601 3.00104 37.2298 2.34989 37.7099 1.8698C38.19 1.38971 38.8412 1.12 39.5201 1.12M36.9601 3.67999H39.5201M36.9601 3.67999V6.23999M39.5201 1.12V3.67999M39.5201 1.12H42.0801M39.5201 3.67999H42.0801M39.5201 3.67999V6.23999M42.0801 1.12V3.67999M42.0801 1.12H44.6401M42.0801 3.67999H44.6401M44.6401 1.12V3.67999M44.6401 1.12H47.2001M44.6401 3.67999H47.2001M47.2001 1.12V3.67999M47.2001 1.12H49.7601M47.2001 3.67999H49.7601M49.7601 1.12V3.67999M49.7601 1.12H52.3201M49.7601 3.67999H52.3201M52.3201 1.12V3.67999M52.3201 1.12C52.9991 1.12 53.6502 1.38971 54.1303 1.8698C54.6104 2.34989 54.8801 3.00104 54.8801 3.67999M52.3201 3.67999H54.8801M52.3201 3.67999V6.23999M54.8801 3.67999V6.23999M3.68012 6.23999H1.12012M3.68012 6.23999V8.79999M1.12012 6.23999V8.79999M19.0401 6.23999H16.4801M19.0401 6.23999V8.79999M16.4801 6.23999V8.79999M26.7201 6.23999V4.95999C26.7201 4.62052 26.5853 4.29494 26.3452 4.0549C26.1052 3.81485 25.7796 3.67999 25.4401 3.67999C25.1006 3.67999 24.7751 3.81485 24.535 4.0549C24.295 4.29494 24.1601 4.62052 24.1601 4.95999V6.23999M26.7201 6.23999H24.1601M26.7201 6.23999C26.7201 6.91895 26.4504 7.57009 25.9703 8.05019C25.4902 8.53028 24.8391 8.79999 24.1601 8.79999M24.1601 6.23999C23.4812 6.23999 22.83 6.50971 22.3499 6.9898C21.8698 7.46989 21.6001 8.12104 21.6001 8.79999M24.1601 6.23999V8.79999M29.2801 6.23999C29.2801 5.56104 29.5498 4.90989 30.0299 4.4298C30.51 3.94971 31.1612 3.67999 31.8401 3.67999M29.2801 6.23999H31.8401M29.2801 6.23999V8.79999M31.8401 3.67999V6.23999M31.8401 3.67999H33.1201C33.4596 3.67999 33.7852 3.81485 34.0252 4.0549C34.2653 4.29494 34.4001 4.62052 34.4001 4.95999C34.4001 5.29947 34.2653 5.62504 34.0252 5.86509C33.7852 6.10514 33.4596 6.23999 33.1201 6.23999H31.8401M31.8401 6.23999V8.79999M39.5201 6.23999H36.9601M39.5201 6.23999V8.79999M36.9601 6.23999V8.79999M54.8801 6.23999H52.3201M54.8801 6.23999V8.79999M52.3201 6.23999V8.79999M3.68012 8.79999H1.12012M3.68012 8.79999V11.36M1.12012 8.79999V11.36M6.24012 8.79999C6.24012 8.12104 6.50983 7.46989 6.98992 6.9898C7.47002 6.50971 8.12116 6.23999 8.80012 6.23999M6.24012 8.79999H8.80012M6.24012 8.79999V11.36M8.80012 6.23999V8.79999M8.80012 6.23999H11.3601M8.80012 8.79999H11.3601M8.80012 8.79999V11.36M11.3601 6.23999V8.79999M11.3601 6.23999C12.0391 6.23999 12.6902 6.50971 13.1703 6.9898C13.6504 7.46989 13.9201 8.12104 13.9201 8.79999M11.3601 8.79999H13.9201M11.3601 8.79999V11.36M13.9201 8.79999V11.36M19.0401 8.79999H16.4801M19.0401 8.79999V11.36M16.4801 8.79999V11.36M21.6001 8.79999H24.1601M21.6001 8.79999V10.08C21.6001 10.4195 21.735 10.745 21.975 10.9851C22.2151 11.2251 22.5406 11.36 22.8801 11.36C23.2196 11.36 23.5452 11.2251 23.7852 10.9851C24.0253 10.745 24.1601 10.4195 24.1601 10.08V8.79999M31.8401 8.79999H29.2801M31.8401 8.79999V11.36M29.2801 8.79999V11.36M29.2801 8.79999H28.0001C27.6606 8.79999 27.3351 8.93485 27.095 9.1749C26.855 9.41494 26.7201 9.74052 26.7201 10.08C26.7201 10.4195 26.855 10.745 27.095 10.9851C27.3351 11.2251 27.6606 11.36 28.0001 11.36H29.2801M39.5201 8.79999H36.9601M39.5201 8.79999V11.36M36.9601 8.79999V11.36M42.0801 8.79999C42.0801 8.12104 42.3498 7.46989 42.8299 6.9898C43.31 6.50971 43.9612 6.23999 44.6401 6.23999M42.0801 8.79999H44.6401M42.0801 8.79999V11.36M44.6401 6.23999V8.79999M44.6401 6.23999H47.2001M44.6401 8.79999H47.2001M44.6401 8.79999V11.36M47.2001 6.23999V8.79999M47.2001 6.23999C47.8791 6.23999 48.5302 6.50971 49.0103 6.9898C49.4904 7.46989 49.7601 8.12104 49.7601 8.79999M47.2001 8.79999H49.7601M47.2001 8.79999V11.36M49.7601 8.79999V11.36M54.8801 8.79999H52.3201M54.8801 8.79999V11.36M52.3201 8.79999V11.36M3.68012 11.36H1.12012M3.68012 11.36V13.92M1.12012 11.36V13.92M8.80012 11.36H6.24012M8.80012 11.36H11.3601M8.80012 11.36V13.92M6.24012 11.36C6.24012 12.0389 6.50983 12.6901 6.98992 13.1702C7.47002 13.6503 8.12116 13.92 8.80012 13.92M11.3601 11.36H13.9201M11.3601 11.36V13.92M13.9201 11.36C13.9201 12.0389 13.6504 12.6901 13.1703 13.1702C12.6902 13.6503 12.0391 13.92 11.3601 13.92M19.0401 11.36H16.4801M19.0401 11.36V13.92M16.4801 11.36V13.92M29.2801 11.36H31.8401M29.2801 11.36V13.92M31.8401 11.36V13.92M39.5201 11.36H36.9601M39.5201 11.36V13.92M36.9601 11.36V13.92M44.6401 11.36H42.0801M44.6401 11.36H47.2001M44.6401 11.36V13.92M42.0801 11.36C42.0801 12.0389 42.3498 12.6901 42.8299 13.1702C43.31 13.6503 43.9612 13.92 44.6401 13.92M47.2001 11.36H49.7601M47.2001 11.36V13.92M49.7601 11.36C49.7601 12.0389 49.4904 12.6901 49.0103 13.1702C48.5302 13.6503 47.8791 13.92 47.2001 13.92M54.8801 11.36H52.3201M54.8801 11.36V13.92M52.3201 11.36V13.92M3.68012 13.92H1.12012M3.68012 13.92V16.48M1.12012 13.92V16.48M8.80012 13.92H11.3601M19.0401 13.92H16.4801M19.0401 13.92V16.48M16.4801 13.92V16.48M26.7201 13.92V12.64C26.7201 12.3005 26.5853 11.9749 26.3452 11.7349C26.1052 11.4949 25.7796 11.36 25.4401 11.36C25.1006 11.36 24.7751 11.4949 24.535 11.7349C24.295 11.9749 24.1601 12.3005 24.1601 12.64V13.92M26.7201 13.92H24.1601M26.7201 13.92V15.2C26.7201 15.5395 26.5853 15.865 26.3452 16.1051C26.1052 16.3451 25.7796 16.48 25.4401 16.48C25.1006 16.48 24.7751 16.3451 24.535 16.1051C24.295 15.865 24.1601 15.5395 24.1601 15.2V13.92M31.8401 13.92H29.2801M31.8401 13.92V15.2C31.8401 15.5395 31.7053 15.865 31.4652 16.1051C31.2252 16.3451 30.8996 16.48 30.5601 16.48C30.2206 16.48 29.8951 16.3451 29.655 16.1051C29.415 15.865 29.2801 15.5395 29.2801 15.2V13.92M39.5201 13.92H36.9601M39.5201 13.92V16.48M36.9601 13.92V16.48M44.6401 13.92H47.2001M54.8801 13.92H52.3201M54.8801 13.92V16.48M52.3201 13.92V16.48M3.68012 16.48H1.12012M3.68012 16.48V19.04M3.68012 16.48H6.24012M1.12012 16.48C1.12012 17.1589 1.38983 17.8101 1.86992 18.2902C2.35002 18.7703 3.00116 19.04 3.68012 19.04M19.0401 16.48H16.4801M19.0401 16.48C19.0401 17.1589 18.7704 17.8101 18.2903 18.2902C17.8102 18.7703 17.1591 19.04 16.4801 19.04M16.4801 16.48H13.9201M16.4801 16.48V19.04M39.5201 16.48H36.9601M39.5201 16.48V19.04M39.5201 16.48H42.0801M36.9601 16.48C36.9601 17.1589 37.2298 17.8101 37.7099 18.2902C38.19 18.7703 38.8412 19.04 39.5201 19.04M54.8801 16.48H52.3201M54.8801 16.48C54.8801 17.1589 54.6104 17.8101 54.1303 18.2902C53.6502 18.7703 52.9991 19.04 52.3201 19.04M52.3201 16.48H49.7601M52.3201 16.48V19.04M3.68012 19.04H6.24012M6.24012 16.48V19.04M6.24012 16.48H8.80012M6.24012 19.04H8.80012M8.80012 16.48V19.04M8.80012 16.48H11.3601M8.80012 19.04H11.3601M11.3601 16.48V19.04M11.3601 16.48H13.9201M11.3601 19.04H13.9201M13.9201 16.48V19.04M13.9201 19.04H16.4801M34.4001 19.04V17.76C34.4001 17.4205 34.2653 17.0949 34.0252 16.8549C33.7852 16.6149 33.4596 16.48 33.1201 16.48C32.7806 16.48 32.4551 16.6149 32.215 16.8549C31.975 17.0949 31.8401 17.4205 31.8401 17.76V19.04M34.4001 19.04H31.8401M34.4001 19.04C34.4001 19.7189 34.1304 20.3701 33.6503 20.8502C33.1702 21.3303 32.5191 21.6 31.8401 21.6M31.8401 19.04V21.6M31.8401 19.04H30.5601C30.2206 19.04 29.8951 19.1749 29.655 19.4149C29.415 19.6549 29.2801 19.9805 29.2801 20.32C29.2801 20.6595 29.415 20.985 29.655 21.2251C29.8951 21.4651 30.2206 21.6 30.5601 21.6H31.8401M39.5201 19.04H42.0801M42.0801 16.48V19.04M42.0801 16.48H44.6401M42.0801 19.04H44.6401M44.6401 16.48V19.04M44.6401 16.48H47.2001M44.6401 19.04H47.2001M47.2001 16.48V19.04M47.2001 16.48H49.7601M47.2001 19.04H49.7601M49.7601 16.48V19.04M49.7601 19.04H52.3201M11.3601 24.16H10.0801C9.74064 24.16 9.41507 24.0251 9.17502 23.7851C8.93497 23.545 8.80012 23.2195 8.80012 22.88C8.80012 22.5405 8.93497 22.2149 9.17502 21.9749C9.41507 21.7349 9.74064 21.6 10.0801 21.6H11.3601M11.3601 24.16V21.6M11.3601 24.16H12.6401C12.9796 24.16 13.3052 24.0251 13.5452 23.7851C13.7853 23.545 13.9201 23.2195 13.9201 22.88C13.9201 22.5405 13.7853 22.2149 13.5452 21.9749C13.3052 21.7349 12.9796 21.6 12.6401 21.6H11.3601M19.0401 24.16H17.7601C17.4206 24.16 17.0951 24.0251 16.855 23.7851C16.615 23.545 16.4801 23.2195 16.4801 22.88C16.4801 22.5405 16.615 22.2149 16.855 21.9749C17.0951 21.7349 17.4206 21.6 17.7601 21.6H19.0401M19.0401 24.16V21.6M19.0401 24.16H20.3201C20.6596 24.16 20.9852 24.0251 21.2252 23.7851C21.4653 23.545 21.6001 23.2195 21.6001 22.88C21.6001 22.5405 21.4653 22.2149 21.2252 21.9749C20.9852 21.7349 20.6596 21.6 20.3201 21.6H19.0401M29.2801 24.16V22.88C29.2801 22.5405 29.1453 22.2149 28.9052 21.9749C28.6652 21.7349 28.3396 21.6 28.0001 21.6C27.6606 21.6 27.3351 21.7349 27.095 21.9749C26.855 22.2149 26.7201 22.5405 26.7201 22.88V24.16M29.2801 24.16H26.7201M29.2801 24.16V26.72M29.2801 24.16H31.8401M26.7201 24.16V26.72M44.6401 24.16C44.6401 23.481 44.9098 22.8299 45.3899 22.3498C45.87 21.8697 46.5212 21.6 47.2001 21.6M44.6401 24.16H47.2001M44.6401 24.16H42.0801M44.6401 24.16V26.72M47.2001 21.6V24.16M47.2001 21.6C47.8791 21.6 48.5302 21.8697 49.0103 22.3498C49.4904 22.8299 49.7601 23.481 49.7601 24.16M47.2001 24.16H49.7601M47.2001 24.16V26.72M49.7601 24.16V26.72M49.7601 24.16C50.4391 24.16 51.0902 24.4297 51.5703 24.9098C52.0504 25.3899 52.3201 26.041 52.3201 26.72M1.12012 26.72C1.12012 26.041 1.38983 25.3899 1.86992 24.9098C2.35002 24.4297 3.00116 24.16 3.68012 24.16M1.12012 26.72H3.68012M1.12012 26.72C1.12012 27.3989 1.38983 28.0501 1.86992 28.5302C2.35002 29.0103 3.00116 29.28 3.68012 29.28M3.68012 24.16V26.72M3.68012 24.16C4.35907 24.16 5.01022 24.4297 5.49031 24.9098C5.9704 25.3899 6.24012 26.041 6.24012 26.72M3.68012 26.72H6.24012M3.68012 26.72V29.28M6.24012 26.72V29.28M6.24012 26.72H8.80012M29.2801 26.72H26.7201M29.2801 26.72H31.8401M29.2801 26.72V29.28M26.7201 26.72C26.7201 27.3989 26.9898 28.0501 27.4699 28.5302C27.95 29.0103 28.6012 29.28 29.2801 29.28M31.8401 24.16V26.72M31.8401 24.16H34.4001M31.8401 26.72H34.4001M31.8401 26.72C31.8401 27.3989 31.5704 28.0501 31.0903 28.5302C30.6102 29.0103 29.9591 29.28 29.2801 29.28M34.4001 24.16V26.72M34.4001 24.16C35.0791 24.16 35.7302 24.4297 36.2103 24.9098C36.6904 25.3899 36.9601 26.041 36.9601 26.72M34.4001 26.72H36.9601M34.4001 26.72V29.28M36.9601 26.72V29.28M39.5201 26.72C39.5201 26.041 39.7898 25.3899 40.2699 24.9098C40.75 24.4297 41.4012 24.16 42.0801 24.16M39.5201 26.72H42.0801M39.5201 26.72V29.28M42.0801 24.16V26.72M42.0801 26.72H44.6401M42.0801 26.72V29.28M44.6401 26.72H47.2001M44.6401 26.72C44.6401 27.3989 44.9098 28.0501 45.3899 28.5302C45.87 29.0103 46.5212 29.28 47.2001 29.28M47.2001 26.72H49.7601M47.2001 26.72V29.28M49.7601 26.72H52.3201M49.7601 26.72V29.28M52.3201 26.72V29.28M52.3201 26.72H53.6001C53.9396 26.72 54.2652 26.8549 54.5052 27.0949C54.7453 27.3349 54.8801 27.6605 54.8801 28C54.8801 28.3395 54.7453 28.665 54.5052 28.9051C54.2652 29.1451 53.9396 29.28 53.6001 29.28H52.3201M3.68012 29.28H6.24012M6.24012 29.28H8.80012M6.24012 29.28V31.84M8.80012 26.72V29.28M8.80012 26.72H11.3601M8.80012 29.28H11.3601M8.80012 29.28V31.84M11.3601 26.72V29.28M11.3601 26.72C12.0391 26.72 12.6902 26.9897 13.1703 27.4698C13.6504 27.9499 13.9201 28.601 13.9201 29.28M11.3601 29.28H13.9201M11.3601 29.28V31.84M13.9201 29.28V31.84M19.0401 29.28H17.7601C17.4206 29.28 17.0951 29.1451 16.855 28.9051C16.615 28.665 16.4801 28.3395 16.4801 28C16.4801 27.6605 16.615 27.3349 16.855 27.0949C17.0951 26.8549 17.4206 26.72 17.7601 26.72H19.0401M19.0401 29.28V26.72M19.0401 29.28H21.6001M19.0401 29.28C19.0401 29.9589 19.3098 30.6101 19.7899 31.0902C20.27 31.5703 20.9212 31.84 21.6001 31.84M19.0401 26.72H21.6001M21.6001 26.72V29.28M21.6001 26.72C22.2791 26.72 22.9302 26.9897 23.4103 27.4698C23.8904 27.9499 24.1601 28.601 24.1601 29.28M21.6001 29.28H24.1601M21.6001 29.28V31.84M24.1601 29.28V31.84M36.9601 29.28H34.4001M36.9601 29.28V31.84M34.4001 29.28V31.84M34.4001 29.28H33.1201C32.7806 29.28 32.4551 29.4149 32.215 29.6549C31.975 29.8949 31.8401 30.2205 31.8401 30.56C31.8401 30.8995 31.975 31.225 32.215 31.4651C32.4551 31.7051 32.7806 31.84 33.1201 31.84H34.4001M42.0801 29.28H39.5201M42.0801 29.28V31.84M42.0801 29.28C42.7591 29.28 43.4102 29.5497 43.8903 30.0298C44.3704 30.5099 44.6401 31.161 44.6401 31.84M39.5201 29.28V31.84M47.2001 29.28H49.7601M47.2001 29.28V30.56C47.2001 30.8995 47.335 31.225 47.575 31.4651C47.8151 31.7051 48.1406 31.84 48.4801 31.84C48.8196 31.84 49.1452 31.7051 49.3852 31.4651C49.6253 31.225 49.7601 30.8995 49.7601 30.56V29.28M49.7601 29.28H52.3201M8.80012 31.84H6.24012M8.80012 31.84V34.4M8.80012 31.84H11.3601M6.24012 31.84C6.24012 32.5189 6.50983 33.1701 6.98992 33.6502C7.47002 34.1303 8.12116 34.4 8.80012 34.4M13.9201 31.84H11.3601M13.9201 31.84V34.4M13.9201 31.84H16.4801M11.3601 31.84V34.4M21.6001 31.84H24.1601M21.6001 31.84V34.4M24.1601 31.84V34.4M24.1601 31.84H25.4401C25.7796 31.84 26.1052 31.9749 26.3452 32.2149C26.5853 32.4549 26.7201 32.7805 26.7201 33.12C26.7201 33.4595 26.5853 33.785 26.3452 34.0251C26.1052 34.2651 25.7796 34.4 25.4401 34.4H24.1601M34.4001 31.84H36.9601M34.4001 31.84V33.12C34.4001 33.4595 34.535 33.785 34.775 34.0251C35.0151 34.2651 35.3406 34.4 35.6801 34.4C36.0196 34.4 36.3452 34.2651 36.5852 34.0251C36.8253 33.785 36.9601 33.4595 36.9601 33.12V31.84M42.0801 31.84H39.5201M42.0801 31.84H44.6401M42.0801 31.84V34.4M39.5201 31.84C39.5201 32.5189 39.7898 33.1701 40.2699 33.6502C40.75 34.1303 41.4012 34.4 42.0801 34.4M44.6401 31.84C44.6401 32.5189 44.3704 33.1701 43.8903 33.6502C43.4102 34.1303 42.7591 34.4 42.0801 34.4M8.80012 34.4H11.3601M11.3601 34.4H13.9201M13.9201 34.4H16.4801M16.4801 31.84V34.4M16.4801 31.84H17.7601C18.0996 31.84 18.4252 31.9749 18.6652 32.2149C18.9053 32.4549 19.0401 32.7805 19.0401 33.12C19.0401 33.4595 18.9053 33.785 18.6652 34.0251C18.4252 34.2651 18.0996 34.4 17.7601 34.4H16.4801M24.1601 34.4H21.6001M24.1601 34.4V36.96M21.6001 34.4V36.96M52.3201 34.4V33.12C52.3201 32.7805 52.1853 32.4549 51.9452 32.2149C51.7052 31.9749 51.3796 31.84 51.0401 31.84C50.7006 31.84 50.3751 31.9749 50.135 32.2149C49.895 32.4549 49.7601 32.7805 49.7601 33.12V34.4M52.3201 34.4H49.7601M52.3201 34.4C52.3201 35.0789 52.0504 35.7301 51.5703 36.2102C51.0902 36.6903 50.4391 36.96 49.7601 36.96M49.7601 34.4H47.2001M49.7601 34.4V36.96M24.1601 36.96H21.6001M24.1601 36.96V39.52M24.1601 36.96H25.4401C25.7796 36.96 26.1052 37.0948 26.3452 37.3349C26.5853 37.5749 26.7201 37.9005 26.7201 38.24C26.7201 38.5795 26.5853 38.905 26.3452 39.1451C26.1052 39.3851 25.7796 39.52 25.4401 39.52H24.1601M21.6001 36.96C21.6001 37.6389 21.8698 38.2901 22.3499 38.7702C22.83 39.2503 23.4812 39.52 24.1601 39.52M39.5201 36.96V35.68C39.5201 35.3405 39.3853 35.0149 39.1452 34.7749C38.9052 34.5348 38.5796 34.4 38.2401 34.4C37.9006 34.4 37.5751 34.5348 37.335 34.7749C37.095 35.0149 36.9601 35.3405 36.9601 35.68V36.96M39.5201 36.96H36.9601M39.5201 36.96C39.5201 37.6389 39.2504 38.2901 38.7703 38.7702C38.2902 39.2503 37.6391 39.52 36.9601 39.52M36.9601 36.96C36.2812 36.96 35.63 37.2297 35.1499 37.7098C34.6698 38.1899 34.4001 38.841 34.4001 39.52M36.9601 36.96V39.52M47.2001 36.96H45.9201C45.5806 36.96 45.2551 36.8251 45.015 36.5851C44.775 36.345 44.6401 36.0195 44.6401 35.68C44.6401 35.3405 44.775 35.0149 45.015 34.7749C45.2551 34.5348 45.5806 34.4 45.9201 34.4H47.2001M47.2001 36.96V34.4M47.2001 36.96H49.7601M47.2001 36.96V39.52M49.7601 36.96V39.52M1.12012 39.52C1.12012 38.841 1.38983 38.1899 1.86992 37.7098C2.35002 37.2297 3.00116 36.96 3.68012 36.96M1.12012 39.52H3.68012M1.12012 39.52V42.08M3.68012 36.96V39.52M3.68012 36.96H6.24012M3.68012 39.52H6.24012M3.68012 39.52V42.08M6.24012 36.96V39.52M6.24012 36.96H8.80012M6.24012 39.52H8.80012M8.80012 36.96V39.52M8.80012 36.96H11.3601M8.80012 39.52H11.3601M11.3601 36.96V39.52M11.3601 36.96H13.9201M11.3601 39.52H13.9201M13.9201 36.96V39.52M13.9201 36.96H16.4801M13.9201 39.52H16.4801M16.4801 36.96V39.52M16.4801 36.96C17.1591 36.96 17.8102 37.2297 18.2903 37.7098C18.7704 38.1899 19.0401 38.841 19.0401 39.52M16.4801 39.52H19.0401M16.4801 39.52V42.08M19.0401 39.52V42.08M34.4001 39.52H36.9601M34.4001 39.52V40.8C34.4001 41.1395 34.535 41.465 34.775 41.7051C35.0151 41.9451 35.3406 42.08 35.6801 42.08C36.0196 42.08 36.3452 41.9451 36.5852 41.7051C36.8253 41.465 36.9601 41.1395 36.9601 40.8V39.52M49.7601 39.52H47.2001M49.7601 39.52V42.08M49.7601 39.52H52.3201M47.2001 39.52V42.08M47.2001 39.52H45.9201C45.5806 39.52 45.2551 39.6548 45.015 39.8949C44.775 40.1349 44.6401 40.4605 44.6401 40.8C44.6401 41.1395 44.775 41.465 45.015 41.7051C45.2551 41.9451 45.5806 42.08 45.9201 42.08H47.2001M3.68012 42.08H1.12012M3.68012 42.08V44.64M1.12012 42.08V44.64M19.0401 42.08H16.4801M19.0401 42.08V44.64M16.4801 42.08V44.64M47.2001 42.08H49.7601M49.7601 42.08H52.3201M49.7601 42.08C49.7601 42.7589 50.0298 43.4101 50.5099 43.8902C50.99 44.3703 51.6412 44.64 52.3201 44.64M52.3201 39.52V42.08M52.3201 39.52C52.9991 39.52 53.6502 39.7897 54.1303 40.2698C54.6104 40.7499 54.8801 41.401 54.8801 42.08M52.3201 42.08H54.8801M52.3201 42.08V44.64M54.8801 42.08C54.8801 42.7589 54.6104 43.4101 54.1303 43.8902C53.6502 44.3703 52.9991 44.64 52.3201 44.64M3.68012 44.64H1.12012M3.68012 44.64V47.2M1.12012 44.64V47.2M6.24012 44.64C6.24012 43.961 6.50983 43.3099 6.98992 42.8298C7.47002 42.3497 8.12116 42.08 8.80012 42.08M6.24012 44.64H8.80012M6.24012 44.64V47.2M8.80012 42.08V44.64M8.80012 42.08H11.3601M8.80012 44.64H11.3601M8.80012 44.64V47.2M11.3601 42.08V44.64M11.3601 42.08C12.0391 42.08 12.6902 42.3497 13.1703 42.8298C13.6504 43.3099 13.9201 43.961 13.9201 44.64M11.3601 44.64H13.9201M11.3601 44.64V47.2M13.9201 44.64V47.2M19.0401 44.64H16.4801M19.0401 44.64V47.2M16.4801 44.64V47.2M21.6001 44.64C21.6001 43.961 21.8698 43.3099 22.3499 42.8298C22.83 42.3497 23.4812 42.08 24.1601 42.08M21.6001 44.64H24.1601M21.6001 44.64C21.6001 45.3189 21.8698 45.9701 22.3499 46.4502C22.83 46.9303 23.4812 47.2 24.1601 47.2M24.1601 42.08V44.64M24.1601 42.08H26.7201M24.1601 44.64H26.7201M24.1601 44.64V47.2M26.7201 42.08V44.64M26.7201 42.08H28.0001C28.3396 42.08 28.6652 42.2148 28.9052 42.4549C29.1453 42.6949 29.2801 43.0205 29.2801 43.36C29.2801 43.6995 29.1453 44.025 28.9052 44.2651C28.6652 44.5051 28.3396 44.64 28.0001 44.64H26.7201M26.7201 44.64V47.2M44.6401 44.64V43.36C44.6401 43.0205 44.5053 42.6949 44.2652 42.4549C44.0252 42.2148 43.6996 42.08 43.3601 42.08C43.0206 42.08 42.6951 42.2148 42.455 42.4549C42.215 42.6949 42.0801 43.0205 42.0801 43.36V44.64M44.6401 44.64H42.0801M44.6401 44.64V47.2M44.6401 44.64H47.2001M42.0801 44.64V47.2M3.68012 47.2H1.12012M3.68012 47.2V49.76M1.12012 47.2V49.76M8.80012 47.2H6.24012M8.80012 47.2H11.3601M8.80012 47.2V49.76M6.24012 47.2C6.24012 47.8789 6.50983 48.5301 6.98992 49.0102C7.47002 49.4903 8.12116 49.76 8.80012 49.76M11.3601 47.2H13.9201M11.3601 47.2V49.76M13.9201 47.2C13.9201 47.8789 13.6504 48.5301 13.1703 49.0102C12.6902 49.4903 12.0391 49.76 11.3601 49.76M19.0401 47.2H16.4801M19.0401 47.2V49.76M16.4801 47.2V49.76M24.1601 47.2H26.7201M24.1601 47.2V48.48C24.1601 48.8195 24.295 49.145 24.535 49.3851C24.7751 49.6251 25.1006 49.76 25.4401 49.76C25.7796 49.76 26.1052 49.6251 26.3452 49.3851C26.5853 49.145 26.7201 48.8195 26.7201 48.48V47.2M44.6401 47.2H42.0801M44.6401 47.2H47.2001M44.6401 47.2V49.76M42.0801 47.2C41.4012 47.2 40.75 47.4697 40.2699 47.9498C39.7898 48.4299 39.5201 49.081 39.5201 49.76M42.0801 47.2V49.76M47.2001 44.64V47.2M47.2001 44.64C47.8791 44.64 48.5302 44.9097 49.0103 45.3898C49.4904 45.8699 49.7601 46.521 49.7601 47.2M47.2001 47.2H49.7601M47.2001 47.2V49.76M49.7601 47.2V49.76M49.7601 47.2H52.3201M3.68012 49.76H1.12012M3.68012 49.76V52.32M1.12012 49.76V52.32M8.80012 49.76H11.3601M19.0401 49.76H16.4801M19.0401 49.76V52.32M16.4801 49.76V52.32M39.5201 49.76H42.0801M39.5201 49.76V52.32M42.0801 49.76H44.6401M42.0801 49.76V52.32M44.6401 49.76H47.2001M44.6401 49.76V52.32M47.2001 49.76H49.7601M47.2001 49.76V52.32M49.7601 49.76H52.3201M49.7601 49.76V52.32M52.3201 47.2V49.76M52.3201 47.2C52.9991 47.2 53.6502 47.4697 54.1303 47.9498C54.6104 48.4299 54.8801 49.081 54.8801 49.76M52.3201 49.76H54.8801M52.3201 49.76V52.32M54.8801 49.76C54.8801 50.4389 54.6104 51.0901 54.1303 51.5702C53.6502 52.0503 52.9991 52.32 52.3201 52.32M3.68012 52.32H1.12012M3.68012 52.32V54.88M3.68012 52.32H6.24012M1.12012 52.32C1.12012 52.9989 1.38983 53.6501 1.86992 54.1302C2.35002 54.6103 3.00116 54.88 3.68012 54.88M19.0401 52.32H16.4801M19.0401 52.32C19.0401 52.9989 18.7704 53.6501 18.2903 54.1302C17.8102 54.6103 17.1591 54.88 16.4801 54.88M16.4801 52.32H13.9201M16.4801 52.32V54.88M29.2801 52.32H28.0001C27.6606 52.32 27.3351 52.1851 27.095 51.9451C26.855 51.705 26.7201 51.3795 26.7201 51.04C26.7201 50.7005 26.855 50.3749 27.095 50.1349C27.3351 49.8948 27.6606 49.76 28.0001 49.76H29.2801M29.2801 52.32V49.76M29.2801 52.32H31.8401M29.2801 52.32C29.2801 52.9989 29.5498 53.6501 30.0299 54.1302C30.51 54.6103 31.1612 54.88 31.8401 54.88M29.2801 49.76H31.8401M31.8401 49.76V52.32M31.8401 49.76H34.4001M31.8401 52.32H34.4001M31.8401 52.32V54.88M34.4001 49.76V52.32M34.4001 49.76H35.6801C36.0196 49.76 36.3452 49.8948 36.5852 50.1349C36.8253 50.3749 36.9601 50.7005 36.9601 51.04C36.9601 51.3795 36.8253 51.705 36.5852 51.9451C36.3452 52.1851 36.0196 52.32 35.6801 52.32H34.4001M34.4001 52.32C34.4001 52.9989 34.1304 53.6501 33.6503 54.1302C33.1702 54.6103 32.5191 54.88 31.8401 54.88M42.0801 52.32H39.5201M42.0801 52.32H44.6401M42.0801 52.32V54.88M39.5201 52.32V54.88M39.5201 52.32H38.2401C37.9006 52.32 37.5751 52.4548 37.335 52.6949C37.095 52.9349 36.9601 53.2605 36.9601 53.6C36.9601 53.9395 37.095 54.265 37.335 54.5051C37.5751 54.7451 37.9006 54.88 38.2401 54.88H39.5201M44.6401 52.32H47.2001M44.6401 52.32V54.88M47.2001 52.32H49.7601M47.2001 52.32C47.2001 52.9989 46.9304 53.6501 46.4503 54.1302C45.9702 54.6103 45.3191 54.88 44.6401 54.88M49.7601 52.32H52.3201M3.68012 54.88H6.24012M6.24012 52.32V54.88M6.24012 52.32H8.80012M6.24012 54.88H8.80012M8.80012 52.32V54.88M8.80012 52.32H11.3601M8.80012 54.88H11.3601M11.3601 52.32V54.88M11.3601 52.32H13.9201M11.3601 54.88H13.9201M13.9201 52.32V54.88M13.9201 54.88H16.4801M39.5201 54.88H42.0801M42.0801 54.88H44.6401M22.8801 16.48C23.2196 16.48 23.5452 16.6149 23.7852 16.8549C24.0253 17.0949 24.1601 17.4205 24.1601 17.76C24.1601 18.0995 24.0253 18.425 23.7852 18.6651C23.5452 18.9051 23.2196 19.04 22.8801 19.04C22.5406 19.04 22.2151 18.9051 21.975 18.6651C21.735 18.425 21.6001 18.0995 21.6001 17.76C21.6001 17.4205 21.735 17.0949 21.975 16.8549C22.2151 16.6149 22.5406 16.48 22.8801 16.48ZM28.0001 16.48C28.3396 16.48 28.6652 16.6149 28.9052 16.8549C29.1453 17.0949 29.2801 17.4205 29.2801 17.76C29.2801 18.0995 29.1453 18.425 28.9052 18.6651C28.6652 18.9051 28.3396 19.04 28.0001 19.04C27.6606 19.04 27.3351 18.9051 27.095 18.6651C26.855 18.425 26.7201 18.0995 26.7201 17.76C26.7201 17.4205 26.855 17.0949 27.095 16.8549C27.3351 16.6149 27.6606 16.48 28.0001 16.48ZM2.40012 31.84C2.73959 31.84 3.06517 31.9749 3.30521 32.2149C3.54526 32.4549 3.68012 32.7805 3.68012 33.12C3.68012 33.4595 3.54526 33.785 3.30521 34.0251C3.06517 34.2651 2.73959 34.4 2.40012 34.4C2.06064 34.4 1.73507 34.2651 1.49502 34.0251C1.25497 33.785 1.12012 33.4595 1.12012 33.12C1.12012 32.7805 1.25497 32.4549 1.49502 32.2149C1.73507 31.9749 2.06064 31.84 2.40012 31.84ZM28.0001 34.4C28.3396 34.4 28.6652 34.5348 28.9052 34.7749C29.1453 35.0149 29.2801 35.3405 29.2801 35.68C29.2801 36.0195 29.1453 36.345 28.9052 36.5851C28.6652 36.8251 28.3396 36.96 28.0001 36.96C27.6606 36.96 27.3351 36.8251 27.095 36.5851C26.855 36.345 26.7201 36.0195 26.7201 35.68C26.7201 35.3405 26.855 35.0149 27.095 34.7749C27.3351 34.5348 27.6606 34.4 28.0001 34.4ZM30.5601 39.52C30.8996 39.52 31.2252 39.6548 31.4652 39.8949C31.7053 40.1349 31.8401 40.4605 31.8401 40.8C31.8401 41.1395 31.7053 41.465 31.4652 41.7051C31.2252 41.9451 30.8996 42.08 30.5601 42.08C30.2206 42.08 29.8951 41.9451 29.655 41.7051C29.415 41.465 29.2801 41.1395 29.2801 40.8C29.2801 40.4605 29.415 40.1349 29.655 39.8949C29.8951 39.6548 30.2206 39.52 30.5601 39.52ZM33.1201 42.08C33.4596 42.08 33.7852 42.2148 34.0252 42.4549C34.2653 42.6949 34.4001 43.0205 34.4001 43.36C34.4001 43.6995 34.2653 44.025 34.0252 44.2651C33.7852 44.5051 33.4596 44.64 33.1201 44.64C32.7806 44.64 32.4551 44.5051 32.215 44.2651C31.975 44.025 31.8401 43.6995 31.8401 43.36C31.8401 43.0205 31.975 42.6949 32.215 42.4549C32.4551 42.2148 32.7806 42.08 33.1201 42.08ZM38.2401 42.08C38.5796 42.08 38.9052 42.2148 39.1452 42.4549C39.3853 42.6949 39.5201 43.0205 39.5201 43.36C39.5201 43.6995 39.3853 44.025 39.1452 44.2651C38.9052 44.5051 38.5796 44.64 38.2401 44.64C37.9006 44.64 37.5751 44.5051 37.335 44.2651C37.095 44.025 36.9601 43.6995 36.9601 43.36C36.9601 43.0205 37.095 42.6949 37.335 42.4549C37.5751 42.2148 37.9006 42.08 38.2401 42.08ZM35.6801 44.64C36.0196 44.64 36.3452 44.7748 36.5852 45.0149C36.8253 45.2549 36.9601 45.5805 36.9601 45.92C36.9601 46.2595 36.8253 46.585 36.5852 46.8251C36.3452 47.0651 36.0196 47.2 35.6801 47.2C35.3406 47.2 35.0151 47.0651 34.775 46.8251C34.535 46.585 34.4001 46.2595 34.4001 45.92C34.4001 45.5805 34.535 45.2549 34.775 45.0149C35.0151 44.7748 35.3406 44.64 35.6801 44.64Z" stroke="#29B674" stroke-width="0.5"/>
</svg>
