<svg width="40" height="40" viewBox="0 0 40 40" fill="none" xmlns="http://www.w3.org/2000/svg">
<circle cx="20" cy="20" r="20" fill="#25A047"/>
<path d="M14.6479 20.9697C14.6479 20.8037 14.7199 20.6266 14.8638 20.4385L22.4092 11.0171C22.5475 10.84 22.6969 10.7321 22.8574 10.6934C23.0234 10.6546 23.1701 10.6712 23.2974 10.7432C23.4302 10.8096 23.5215 10.9202 23.5713 11.0752C23.6266 11.2301 23.6128 11.4128 23.5298 11.623L21.0562 18.3467H25.7461C25.9232 18.3467 26.0671 18.402 26.1777 18.5127C26.2884 18.6178 26.3438 18.7507 26.3438 18.9111C26.3438 19.0827 26.2718 19.2598 26.1279 19.4424L18.5825 28.8721C18.4442 29.0436 18.292 29.1488 18.126 29.1875C17.9655 29.2318 17.8188 29.2179 17.686 29.146C17.5588 29.0796 17.4674 28.9689 17.4121 28.814C17.3623 28.659 17.3789 28.4736 17.4619 28.2578L19.9355 21.5342H15.2456C15.0685 21.5342 14.9246 21.4816 14.814 21.3765C14.7033 21.2658 14.6479 21.1302 14.6479 20.9697Z" fill="white"/>
</svg>
