<svg width="31" height="30" viewBox="0 0 31 30" fill="none" xmlns="http://www.w3.org/2000/svg">
<path d="M17.8333 18.45V4.375C17.8333 3.5462 17.504 2.75134 16.918 2.16529C16.3319 1.57924 15.5371 1.25 14.7083 1.25C13.8795 1.25 13.0846 1.57924 12.4985 2.16529C11.9125 2.75134 11.5833 3.5462 11.5833 4.375V18.45C10.5798 19.1204 9.81866 20.0958 9.41209 21.232C9.00553 22.3682 8.97515 23.6051 9.32545 24.7599C9.67574 25.9147 10.3881 26.9262 11.3574 27.6451C12.3267 28.364 13.5015 28.7521 14.7083 28.7521C15.915 28.7521 17.0898 28.364 18.0591 27.6451C19.0284 26.9262 19.7408 25.9147 20.0911 24.7599C20.4414 23.6051 20.411 22.3682 20.0044 21.232C19.5978 20.0958 18.8367 19.1204 17.8333 18.45Z" stroke="white" stroke-width="2" stroke-linecap="round" stroke-linejoin="round"/>
</svg>
