<svg width="21" height="21" viewBox="0 0 21 21" fill="none" xmlns="http://www.w3.org/2000/svg">
<path d="M11.1563 12.5508V7.21875C11.1563 7.0447 11.0871 6.87778 10.964 6.75471C10.841 6.63164 10.674 6.5625 10.5 6.5625C10.326 6.5625 10.159 6.63164 10.036 6.75471C9.91289 6.87778 9.84375 7.0447 9.84375 7.21875V12.5508C9.22513 12.7105 8.686 13.0904 8.32742 13.6192C7.96883 14.148 7.81542 14.7894 7.89592 15.4232C7.97643 16.057 8.28533 16.6397 8.76472 17.0621C9.24412 17.4844 9.86109 17.7174 10.5 17.7174C11.1389 17.7174 11.7559 17.4844 12.2353 17.0621C12.7147 16.6397 13.0236 16.057 13.1041 15.4232C13.1846 14.7894 13.0312 14.148 12.6726 13.6192C12.314 13.0904 11.7749 12.7105 11.1563 12.5508ZM10.5 16.4062C10.2404 16.4062 9.98665 16.3293 9.77081 16.1851C9.55498 16.0408 9.38675 15.8359 9.28741 15.596C9.18807 15.3562 9.16208 15.0923 9.21272 14.8377C9.26336 14.5831 9.38837 14.3492 9.57192 14.1657C9.75548 13.9821 9.98934 13.8571 10.2439 13.8065C10.4985 13.7558 10.7624 13.7818 11.0023 13.8812C11.2421 13.9805 11.4471 14.1487 11.5913 14.3646C11.7355 14.5804 11.8125 14.8342 11.8125 15.0938C11.8125 15.4418 11.6742 15.7757 11.4281 16.0218C11.1819 16.268 10.8481 16.4062 10.5 16.4062ZM13.7813 10.9922V3.9375C13.7813 3.06726 13.4355 2.23266 12.8202 1.61731C12.2048 1.00195 11.3702 0.65625 10.5 0.65625C9.62976 0.65625 8.79516 1.00195 8.17981 1.61731C7.56445 2.23266 7.21875 3.06726 7.21875 3.9375V10.9922C6.36966 11.672 5.75268 12.5988 5.45308 13.6444C5.15348 14.69 5.18605 15.8029 5.54629 16.8292C5.90653 17.8555 6.57665 18.7446 7.46405 19.3736C8.35144 20.0026 9.41229 20.3405 10.5 20.3405C11.5877 20.3405 12.6486 20.0026 13.536 19.3736C14.4234 18.7446 15.0935 17.8555 15.4537 16.8292C15.8139 15.8029 15.8465 14.69 15.5469 13.6444C15.2473 12.5988 14.6303 11.672 13.7813 10.9922ZM10.5 19.0312C9.66159 19.0313 8.84505 18.7638 8.16926 18.2676C7.49347 17.7713 6.9937 17.0724 6.74273 16.2724C6.49176 15.4725 6.50268 14.6133 6.77391 13.8199C7.04514 13.0266 7.56251 12.3406 8.2507 11.8617C8.33779 11.8009 8.40881 11.7199 8.45768 11.6256C8.50654 11.5313 8.53179 11.4265 8.53125 11.3203V3.9375C8.53125 3.41535 8.73867 2.9146 9.10788 2.54538C9.4771 2.17617 9.97786 1.96875 10.5 1.96875C11.0221 1.96875 11.5229 2.17617 11.8921 2.54538C12.2613 2.9146 12.4688 3.41535 12.4688 3.9375V11.3203C12.4687 11.426 12.4942 11.5301 12.5431 11.6238C12.5919 11.7174 12.6627 11.7979 12.7493 11.8584C13.4389 12.3368 13.9577 13.023 14.2298 13.817C14.502 14.6109 14.5133 15.4711 14.2622 16.2719C14.011 17.0728 13.5106 17.7724 12.8338 18.2688C12.157 18.7652 11.3393 19.0323 10.5 19.0312Z" fill="black"/>
</svg>
